<svg width="21" height="21" viewBox="0 0 21 21" fill="none" xmlns="http://www.w3.org/2000/svg">
<path d="M10.5 0C4.72499 0 0 4.73343 0 10.5633C0 15.8343 3.84299 20.2093 8.86199 21V13.6205H6.19499V10.5633H8.86199V8.23343C8.86199 5.58734 10.4265 4.13253 12.831 4.13253C13.9755 4.13253 15.1725 4.33283 15.1725 4.33283V6.93674H13.8495C12.5475 6.93674 12.138 7.74849 12.138 8.58134V10.5633H15.057L14.5845 13.6205H12.138V21C14.6122 20.6076 16.8653 19.3401 18.4904 17.4262C20.1155 15.5124 21.0056 13.0782 21 10.5633C21 4.73343 16.275 0 10.5 0Z" fill="white"/>
</svg>
