<svg width="21" height="21" viewBox="0 0 21 21" fill="none" xmlns="http://www.w3.org/2000/svg">
<g clip-path="url(#clip0_1764_2666)">
<path d="M10.5 0C4.70039 0 0 4.70039 0 10.5C0 16.2996 4.70039 21 10.5 21C16.2996 21 21 16.2996 21 10.5C21 4.70039 16.2996 0 10.5 0ZM7.56328 14.8928H5.5166V8.34258H7.56328V14.8928ZM6.48457 7.52227H6.46816C5.72578 7.52227 5.2459 7.02188 5.2459 6.38613C5.2459 5.73809 5.74219 5.25 6.49687 5.25C7.25156 5.25 7.71504 5.73809 7.73145 6.38613C7.73555 7.01777 7.25566 7.52227 6.48457 7.52227ZM15.75 14.8928H13.4285V11.5049C13.4285 10.6189 13.0676 10.0119 12.2678 10.0119C11.6566 10.0119 11.3162 10.4221 11.1604 10.8158C11.1029 10.9553 11.1111 11.1521 11.1111 11.3531V14.8928H8.81016C8.81016 14.8928 8.83887 8.88809 8.81016 8.34258H11.1111V9.37207C11.2465 8.9209 11.9807 8.28105 13.1537 8.28105C14.6098 8.28105 15.75 9.22441 15.75 11.2506V14.8928Z" fill="white"/>
</g>
<defs>
<clipPath id="clip0_1764_2666">
<rect width="21" height="21" fill="white"/>
</clipPath>
</defs>
</svg>
