<svg width="894" height="327" viewBox="0 0 894 327" fill="none" xmlns="http://www.w3.org/2000/svg">
<path d="M369.648 38.6136V37.3636H378.375V38.6136H374.716V49H373.307V38.6136H369.648ZM379.462 49V40.2727H380.757V41.5909H380.848C381.007 41.1591 381.295 40.8087 381.712 40.5398C382.128 40.2708 382.598 40.1364 383.121 40.1364C383.219 40.1364 383.342 40.1383 383.49 40.142C383.638 40.1458 383.75 40.1515 383.825 40.1591V41.5227C383.78 41.5114 383.676 41.4943 383.513 41.4716C383.354 41.4451 383.185 41.4318 383.007 41.4318C382.583 41.4318 382.204 41.5208 381.871 41.6989C381.541 41.8731 381.28 42.1155 381.087 42.4261C380.897 42.733 380.803 43.0833 380.803 43.4773V49H379.462ZM390.915 45.4318V40.2727H392.256V49H390.915V47.5227H390.824C390.619 47.9659 390.301 48.3428 389.869 48.6534C389.438 48.9602 388.892 49.1136 388.233 49.1136C387.688 49.1136 387.203 48.9943 386.778 48.7557C386.354 48.5133 386.021 48.1496 385.778 47.6648C385.536 47.1761 385.415 46.5606 385.415 45.8182V40.2727H386.756V45.7273C386.756 46.3636 386.934 46.8712 387.29 47.25C387.65 47.6288 388.108 47.8182 388.665 47.8182C388.998 47.8182 389.337 47.733 389.682 47.5625C390.03 47.392 390.322 47.1307 390.557 46.7784C390.795 46.4261 390.915 45.9773 390.915 45.4318ZM388.233 39.0909L389.619 36.4545H391.188L389.415 39.0909H388.233ZM396.053 43.75V49H394.712V40.2727H396.007V41.6364H396.121C396.325 41.1932 396.636 40.8371 397.053 40.5682C397.469 40.2955 398.007 40.1591 398.666 40.1591C399.257 40.1591 399.774 40.2803 400.217 40.5227C400.661 40.7614 401.005 41.125 401.251 41.6136C401.498 42.0985 401.621 42.7121 401.621 43.4545V49H400.28V43.5455C400.28 42.8598 400.102 42.3258 399.746 41.9432C399.39 41.5568 398.901 41.3636 398.28 41.3636C397.852 41.3636 397.469 41.4564 397.132 41.642C396.799 41.8277 396.536 42.0985 396.342 42.4545C396.149 42.8106 396.053 43.2424 396.053 43.75ZM407.594 52.4545C406.946 52.4545 406.389 52.3712 405.923 52.2045C405.457 52.0417 405.069 51.8258 404.759 51.5568C404.452 51.2917 404.207 51.0076 404.026 50.7045L405.094 49.9545C405.215 50.1136 405.368 50.2955 405.554 50.5C405.74 50.7083 405.993 50.8883 406.315 51.0398C406.641 51.1951 407.067 51.2727 407.594 51.2727C408.298 51.2727 408.88 51.1023 409.338 50.7614C409.796 50.4205 410.026 49.8864 410.026 49.1591V47.3864H409.912C409.813 47.5455 409.673 47.7424 409.491 47.9773C409.313 48.2083 409.056 48.4148 408.719 48.5966C408.385 48.7746 407.935 48.8636 407.366 48.8636C406.662 48.8636 406.029 48.697 405.469 48.3636C404.912 48.0303 404.471 47.5455 404.145 46.9091C403.823 46.2727 403.662 45.5 403.662 44.5909C403.662 43.697 403.819 42.9186 404.134 42.2557C404.448 41.589 404.885 41.0739 405.446 40.7102C406.007 40.3428 406.654 40.1591 407.389 40.1591C407.957 40.1591 408.408 40.2538 408.741 40.4432C409.079 40.6288 409.336 40.8409 409.514 41.0795C409.696 41.3144 409.836 41.5076 409.935 41.6591H410.071V40.2727H411.366V49.25C411.366 50 411.196 50.6098 410.855 51.0795C410.518 51.553 410.063 51.8996 409.491 52.1193C408.923 52.3428 408.291 52.4545 407.594 52.4545ZM407.548 47.6591C408.086 47.6591 408.541 47.536 408.912 47.2898C409.283 47.0436 409.565 46.6894 409.759 46.2273C409.952 45.7652 410.048 45.2121 410.048 44.5682C410.048 43.9394 409.954 43.3845 409.764 42.9034C409.575 42.4223 409.295 42.0455 408.923 41.7727C408.552 41.5 408.094 41.3636 407.548 41.3636C406.98 41.3636 406.507 41.5076 406.128 41.7955C405.753 42.0833 405.471 42.4697 405.281 42.9545C405.096 43.4394 405.003 43.9773 405.003 44.5682C405.003 45.1742 405.098 45.7102 405.287 46.1761C405.48 46.6383 405.764 47.0019 406.139 47.267C406.518 47.5284 406.988 47.6591 407.548 47.6591ZM422.116 40.2727V41.4091H417.594V40.2727H422.116ZM418.912 38.1818H420.253V46.5C420.253 46.8788 420.308 47.1629 420.418 47.3523C420.531 47.5379 420.675 47.6629 420.849 47.7273C421.027 47.7879 421.215 47.8182 421.412 47.8182C421.56 47.8182 421.681 47.8106 421.776 47.7955C421.87 47.7765 421.946 47.7614 422.003 47.75L422.276 48.9545C422.185 48.9886 422.058 49.0227 421.895 49.0568C421.732 49.0947 421.526 49.1136 421.276 49.1136C420.897 49.1136 420.526 49.0322 420.162 48.8693C419.802 48.7064 419.503 48.4583 419.264 48.125C419.029 47.7917 418.912 47.3712 418.912 46.8636V38.1818ZM425.662 43.75V49H424.321V37.3636H425.662V41.6364H425.776C425.98 41.1856 426.287 40.8277 426.696 40.5625C427.109 40.2936 427.658 40.1591 428.344 40.1591C428.938 40.1591 429.459 40.2784 429.906 40.517C430.353 40.7519 430.7 41.1136 430.946 41.6023C431.196 42.0871 431.321 42.7045 431.321 43.4545V49H429.98V43.5455C429.98 42.8523 429.8 42.3163 429.44 41.9375C429.084 41.5549 428.59 41.3636 427.957 41.3636C427.518 41.3636 427.124 41.4564 426.776 41.642C426.431 41.8277 426.158 42.0985 425.957 42.4545C425.76 42.8106 425.662 43.2424 425.662 43.75ZM436.342 49.2045C435.789 49.2045 435.287 49.1004 434.837 48.892C434.386 48.6799 434.028 48.375 433.763 47.9773C433.498 47.5758 433.365 47.0909 433.365 46.5227C433.365 46.0227 433.464 45.6174 433.661 45.3068C433.857 44.9924 434.121 44.7462 434.45 44.5682C434.78 44.3902 435.143 44.2576 435.541 44.1705C435.943 44.0795 436.346 44.0076 436.751 43.9545C437.282 43.8864 437.712 43.8352 438.041 43.8011C438.375 43.7633 438.617 43.7008 438.768 43.6136C438.924 43.5265 439.001 43.375 439.001 43.1591V43.1136C439.001 42.553 438.848 42.1174 438.541 41.8068C438.238 41.4962 437.778 41.3409 437.161 41.3409C436.52 41.3409 436.018 41.4811 435.655 41.7614C435.291 42.0417 435.036 42.3409 434.888 42.6591L433.615 42.2045C433.842 41.6742 434.145 41.2614 434.524 40.9659C434.907 40.6667 435.323 40.4583 435.774 40.3409C436.229 40.2197 436.676 40.1591 437.115 40.1591C437.395 40.1591 437.717 40.1932 438.081 40.2614C438.448 40.3258 438.803 40.4602 439.143 40.6648C439.488 40.8693 439.774 41.178 440.001 41.5909C440.229 42.0038 440.342 42.5568 440.342 43.25V49H439.001V47.8182H438.933C438.842 48.0076 438.691 48.2102 438.479 48.4261C438.267 48.642 437.984 48.8258 437.632 48.9773C437.28 49.1288 436.85 49.2045 436.342 49.2045ZM436.547 48C437.077 48 437.524 47.8958 437.888 47.6875C438.255 47.4792 438.532 47.2102 438.717 46.8807C438.907 46.5511 439.001 46.2045 439.001 45.8409V44.6136C438.945 44.6818 438.82 44.7443 438.626 44.8011C438.437 44.8542 438.217 44.9015 437.967 44.9432C437.721 44.9811 437.481 45.0152 437.246 45.0455C437.015 45.072 436.827 45.0947 436.683 45.1136C436.335 45.1591 436.009 45.233 435.706 45.3352C435.407 45.4337 435.164 45.5833 434.979 45.7841C434.797 45.9811 434.706 46.25 434.706 46.5909C434.706 47.0568 434.878 47.4091 435.223 47.6477C435.571 47.8826 436.013 48 436.547 48ZM437.82 37.1364L440.138 39.2045H438.501L437.206 38L435.911 39.2045H434.274L436.57 37.1364H437.82ZM433.774 35.75L434.865 37.8182H433.706L432.092 35.75H433.774ZM448.29 45.4318V40.2727H449.631V49H448.29V47.5227H448.199C447.994 47.9659 447.676 48.3428 447.244 48.6534C446.813 48.9602 446.267 49.1136 445.608 49.1136C445.062 49.1136 444.578 48.9943 444.153 48.7557C443.729 48.5133 443.396 48.1496 443.153 47.6648C442.911 47.1761 442.79 46.5606 442.79 45.8182V40.2727H444.131V45.7273C444.131 46.3636 444.309 46.8712 444.665 47.25C445.025 47.6288 445.483 47.8182 446.04 47.8182C446.373 47.8182 446.712 47.733 447.057 47.5625C447.405 47.392 447.697 47.1307 447.932 46.7784C448.17 46.4261 448.29 45.9773 448.29 45.4318ZM459.882 49.1818C459.155 49.1818 458.513 48.9981 457.956 48.6307C457.399 48.2595 456.964 47.7367 456.649 47.0625C456.335 46.3845 456.178 45.5833 456.178 44.6591C456.178 43.7424 456.335 42.947 456.649 42.2727C456.964 41.5985 457.401 41.0777 457.962 40.7102C458.522 40.3428 459.17 40.1591 459.905 40.1591C460.473 40.1591 460.922 40.2538 461.251 40.4432C461.585 40.6288 461.839 40.8409 462.013 41.0795C462.191 41.3144 462.329 41.5076 462.428 41.6591H462.541V37.3636H463.882V49H462.587V47.6591H462.428C462.329 47.8182 462.189 48.0189 462.007 48.2614C461.825 48.5 461.566 48.714 461.229 48.9034C460.892 49.089 460.443 49.1818 459.882 49.1818ZM460.064 47.9773C460.602 47.9773 461.056 47.8371 461.428 47.5568C461.799 47.2727 462.081 46.8807 462.274 46.3807C462.467 45.8769 462.564 45.2955 462.564 44.6364C462.564 43.9848 462.469 43.4148 462.28 42.9261C462.09 42.4337 461.81 42.0511 461.439 41.7784C461.068 41.5019 460.609 41.3636 460.064 41.3636C459.496 41.3636 459.022 41.5095 458.643 41.8011C458.268 42.089 457.986 42.4811 457.797 42.9773C457.611 43.4697 457.518 44.0227 457.518 44.6364C457.518 45.2576 457.613 45.822 457.803 46.3295C457.996 46.8333 458.28 47.2348 458.655 47.5341C459.034 47.8295 459.503 47.9773 460.064 47.9773ZM474.388 39.8864H475.57C475.57 40.4621 475.494 40.9451 475.342 41.3352C475.191 41.7216 474.926 42.0133 474.547 42.2102C474.168 42.4034 473.638 42.5 472.956 42.5V41.5682C473.426 41.5682 473.759 41.5114 473.956 41.3977C474.157 41.2803 474.278 41.0985 474.32 40.8523C474.365 40.6023 474.388 40.2803 474.388 39.8864ZM472.024 45.4318V40.2727H473.365V49H472.024V47.5227H471.933C471.729 47.9659 471.411 48.3428 470.979 48.6534C470.547 48.9602 470.001 49.1136 469.342 49.1136C468.797 49.1136 468.312 48.9943 467.888 48.7557C467.464 48.5133 467.13 48.1496 466.888 47.6648C466.645 47.1761 466.524 46.5606 466.524 45.8182V40.2727H467.865V45.7273C467.865 46.3636 468.043 46.8712 468.399 47.25C468.759 47.6288 469.217 47.8182 469.774 47.8182C470.107 47.8182 470.446 47.733 470.791 47.5625C471.14 47.392 471.431 47.1307 471.666 46.7784C471.905 46.4261 472.024 45.9773 472.024 45.4318ZM469.956 51.8864C469.695 51.8864 469.469 51.7973 469.28 51.6193C469.094 51.4413 469.001 51.2273 469.001 50.9773C469.001 50.7273 469.094 50.5133 469.28 50.3352C469.469 50.1572 469.695 50.0682 469.956 50.0682C470.217 50.0682 470.441 50.1572 470.626 50.3352C470.816 50.5133 470.911 50.7273 470.911 50.9773C470.911 51.2273 470.816 51.4413 470.626 51.6193C470.441 51.7973 470.217 51.8864 469.956 51.8864ZM483.545 49.2045C482.992 49.2045 482.491 49.1004 482.04 48.892C481.589 48.6799 481.231 48.375 480.966 47.9773C480.701 47.5758 480.568 47.0909 480.568 46.5227C480.568 46.0227 480.667 45.6174 480.864 45.3068C481.061 44.9924 481.324 44.7462 481.653 44.5682C481.983 44.3902 482.347 44.2576 482.744 44.1705C483.146 44.0795 483.549 44.0076 483.955 43.9545C484.485 43.8864 484.915 43.8352 485.244 43.8011C485.578 43.7633 485.82 43.7008 485.972 43.6136C486.127 43.5265 486.205 43.375 486.205 43.1591V43.1136C486.205 42.553 486.051 42.1174 485.744 41.8068C485.441 41.4962 484.981 41.3409 484.364 41.3409C483.723 41.3409 483.222 41.4811 482.858 41.7614C482.494 42.0417 482.239 42.3409 482.091 42.6591L480.818 42.2045C481.045 41.6742 481.348 41.2614 481.727 40.9659C482.11 40.6667 482.527 40.4583 482.977 40.3409C483.432 40.2197 483.879 40.1591 484.318 40.1591C484.598 40.1591 484.92 40.1932 485.284 40.2614C485.652 40.3258 486.006 40.4602 486.347 40.6648C486.691 40.8693 486.977 41.178 487.205 41.5909C487.432 42.0038 487.545 42.5568 487.545 43.25V49H486.205V47.8182H486.136C486.045 48.0076 485.894 48.2102 485.682 48.4261C485.47 48.642 485.188 48.8258 484.835 48.9773C484.483 49.1288 484.053 49.2045 483.545 49.2045ZM483.75 48C484.28 48 484.727 47.8958 485.091 47.6875C485.458 47.4792 485.735 47.2102 485.92 46.8807C486.11 46.5511 486.205 46.2045 486.205 45.8409V44.6136C486.148 44.6818 486.023 44.7443 485.83 44.8011C485.64 44.8542 485.42 44.9015 485.17 44.9432C484.924 44.9811 484.684 45.0152 484.449 45.0455C484.218 45.072 484.03 45.0947 483.886 45.1136C483.538 45.1591 483.212 45.233 482.909 45.3352C482.61 45.4337 482.367 45.5833 482.182 45.7841C482 45.9811 481.909 46.25 481.909 46.5909C481.909 47.0568 482.081 47.4091 482.426 47.6477C482.775 47.8826 483.216 48 483.75 48ZM483.795 39.0909L485.182 36.4545H486.75L484.977 39.0909H483.795ZM491.334 43.75V49H489.993V40.2727H491.288V41.6364H491.402C491.607 41.1932 491.917 40.8371 492.334 40.5682C492.75 40.2955 493.288 40.1591 493.947 40.1591C494.538 40.1591 495.055 40.2803 495.499 40.5227C495.942 40.7614 496.286 41.125 496.533 41.6136C496.779 42.0985 496.902 42.7121 496.902 43.4545V49H495.561V43.5455C495.561 42.8598 495.383 42.3258 495.027 41.9432C494.671 41.5568 494.182 41.3636 493.561 41.3636C493.133 41.3636 492.75 41.4564 492.413 41.642C492.08 41.8277 491.817 42.0985 491.624 42.4545C491.43 42.8106 491.334 43.2424 491.334 43.75ZM366.093 62.2727C366.025 61.697 365.748 61.25 365.263 60.9318C364.779 60.6136 364.184 60.4545 363.479 60.4545C362.964 60.4545 362.513 60.5379 362.127 60.7045C361.745 60.8712 361.445 61.1004 361.229 61.392C361.017 61.6837 360.911 62.0152 360.911 62.3864C360.911 62.697 360.985 62.964 361.133 63.1875C361.284 63.4072 361.478 63.5909 361.712 63.7386C361.947 63.8826 362.193 64.0019 362.451 64.0966C362.709 64.1875 362.945 64.2614 363.161 64.3182L364.343 64.6364C364.646 64.7159 364.983 64.8258 365.354 64.9659C365.729 65.1061 366.087 65.2973 366.428 65.5398C366.773 65.7784 367.057 66.0852 367.281 66.4602C367.504 66.8352 367.616 67.2955 367.616 67.8409C367.616 68.4697 367.451 69.0379 367.121 69.5455C366.796 70.053 366.318 70.4564 365.69 70.7557C365.065 71.0549 364.305 71.2045 363.411 71.2045C362.578 71.2045 361.856 71.0701 361.246 70.8011C360.64 70.5322 360.163 70.1572 359.815 69.6761C359.47 69.1951 359.275 68.6364 359.229 68H360.684C360.722 68.4394 360.87 68.803 361.127 69.0909C361.388 69.375 361.718 69.5871 362.116 69.7273C362.517 69.8636 362.949 69.9318 363.411 69.9318C363.949 69.9318 364.432 69.8447 364.86 69.6705C365.288 69.4924 365.627 69.2462 365.877 68.9318C366.127 68.6136 366.252 68.2424 366.252 67.8182C366.252 67.4318 366.144 67.1174 365.928 66.875C365.712 66.6326 365.428 66.4356 365.076 66.2841C364.724 66.1326 364.343 66 363.934 65.8864L362.502 65.4773C361.593 65.2159 360.873 64.8428 360.343 64.358C359.813 63.8731 359.548 63.2386 359.548 62.4545C359.548 61.803 359.724 61.2348 360.076 60.75C360.432 60.2614 360.909 59.8826 361.508 59.6136C362.11 59.3409 362.782 59.2045 363.525 59.2045C364.275 59.2045 364.942 59.339 365.525 59.608C366.108 59.8731 366.57 60.2367 366.911 60.6989C367.256 61.161 367.438 61.6856 367.457 62.2727H366.093ZM372.319 71.2045C371.766 71.2045 371.264 71.1004 370.813 70.892C370.362 70.6799 370.004 70.375 369.739 69.9773C369.474 69.5758 369.342 69.0909 369.342 68.5227C369.342 68.0227 369.44 67.6174 369.637 67.3068C369.834 66.9924 370.097 66.7462 370.427 66.5682C370.756 66.3902 371.12 66.2576 371.518 66.1705C371.919 66.0795 372.323 66.0076 372.728 65.9545C373.258 65.8864 373.688 65.8352 374.018 65.8011C374.351 65.7633 374.594 65.7008 374.745 65.6136C374.9 65.5265 374.978 65.375 374.978 65.1591V65.1136C374.978 64.553 374.825 64.1174 374.518 63.8068C374.215 63.4962 373.754 63.3409 373.137 63.3409C372.497 63.3409 371.995 63.4811 371.631 63.7614C371.268 64.0417 371.012 64.3409 370.864 64.6591L369.592 64.2045C369.819 63.6742 370.122 63.2614 370.501 62.9659C370.883 62.6667 371.3 62.4583 371.751 62.3409C372.205 62.2197 372.652 62.1591 373.092 62.1591C373.372 62.1591 373.694 62.1932 374.058 62.2614C374.425 62.3258 374.779 62.4602 375.12 62.6648C375.465 62.8693 375.751 63.178 375.978 63.5909C376.205 64.0038 376.319 64.5568 376.319 65.25V71H374.978V69.8182H374.91C374.819 70.0076 374.667 70.2102 374.455 70.4261C374.243 70.642 373.961 70.8258 373.609 70.9773C373.256 71.1288 372.826 71.2045 372.319 71.2045ZM372.523 70C373.054 70 373.501 69.8958 373.864 69.6875C374.232 69.4792 374.508 69.2102 374.694 68.8807C374.883 68.5511 374.978 68.2045 374.978 67.8409V66.6136C374.921 66.6818 374.796 66.7443 374.603 66.8011C374.414 66.8542 374.194 66.9015 373.944 66.9432C373.698 66.9811 373.457 67.0152 373.222 67.0455C372.991 67.072 372.804 67.0947 372.66 67.1136C372.311 67.1591 371.986 67.233 371.683 67.3352C371.383 67.4337 371.141 67.5833 370.955 67.7841C370.773 67.9811 370.683 68.25 370.683 68.5909C370.683 69.0568 370.855 69.4091 371.2 69.6477C371.548 69.8826 371.989 70 372.523 70ZM374.364 61.2273L373.183 59.6364L372.001 61.2273H370.728V61.1364L372.569 58.7727H373.796L375.637 61.1364V61.2273H374.364ZM380.107 65.75V71H378.766V62.2727H380.062V63.6364H380.175C380.38 63.1932 380.691 62.8371 381.107 62.5682C381.524 62.2955 382.062 62.1591 382.721 62.1591C383.312 62.1591 383.829 62.2803 384.272 62.5227C384.715 62.7614 385.06 63.125 385.306 63.6136C385.552 64.0985 385.675 64.7121 385.675 65.4545V71H384.335V65.5455C384.335 64.8598 384.156 64.3258 383.8 63.9432C383.444 63.5568 382.956 63.3636 382.335 63.3636C381.906 63.3636 381.524 63.4564 381.187 63.642C380.853 63.8277 380.59 64.0985 380.397 64.4545C380.204 64.8106 380.107 65.2424 380.107 65.75ZM392.808 71V59.3636H394.148V63.6591H394.262C394.361 63.5076 394.497 63.3144 394.671 63.0795C394.849 62.8409 395.103 62.6288 395.433 62.4432C395.766 62.2538 396.217 62.1591 396.785 62.1591C397.52 62.1591 398.167 62.3428 398.728 62.7102C399.289 63.0777 399.726 63.5985 400.04 64.2727C400.355 64.947 400.512 65.7424 400.512 66.6591C400.512 67.5833 400.355 68.3845 400.04 69.0625C399.726 69.7367 399.29 70.2595 398.734 70.6307C398.177 70.9981 397.535 71.1818 396.808 71.1818C396.247 71.1818 395.798 71.089 395.461 70.9034C395.124 70.714 394.864 70.5 394.683 70.2614C394.501 70.0189 394.361 69.8182 394.262 69.6591H394.103V71H392.808ZM394.126 66.6364C394.126 67.2955 394.222 67.8769 394.415 68.3807C394.609 68.8807 394.891 69.2727 395.262 69.5568C395.633 69.8371 396.088 69.9773 396.626 69.9773C397.186 69.9773 397.654 69.8295 398.029 69.5341C398.408 69.2348 398.692 68.8333 398.881 68.3295C399.075 67.822 399.171 67.2576 399.171 66.6364C399.171 66.0227 399.076 65.4697 398.887 64.9773C398.701 64.4811 398.419 64.089 398.04 63.8011C397.665 63.5095 397.194 63.3636 396.626 63.3636C396.08 63.3636 395.622 63.5019 395.251 63.7784C394.879 64.0511 394.599 64.4337 394.41 64.9261C394.22 65.4148 394.126 65.9848 394.126 66.6364ZM405.131 71.2045C404.578 71.2045 404.076 71.1004 403.626 70.892C403.175 70.6799 402.817 70.375 402.552 69.9773C402.287 69.5758 402.154 69.0909 402.154 68.5227C402.154 68.0227 402.253 67.6174 402.45 67.3068C402.647 66.9924 402.91 66.7462 403.239 66.5682C403.569 66.3902 403.933 66.2576 404.33 66.1705C404.732 66.0795 405.135 66.0076 405.54 65.9545C406.071 65.8864 406.501 65.8352 406.83 65.8011C407.164 65.7633 407.406 65.7008 407.558 65.6136C407.713 65.5265 407.79 65.375 407.79 65.1591V65.1136C407.79 64.553 407.637 64.1174 407.33 63.8068C407.027 63.4962 406.567 63.3409 405.95 63.3409C405.309 63.3409 404.808 63.4811 404.444 63.7614C404.08 64.0417 403.825 64.3409 403.677 64.6591L402.404 64.2045C402.631 63.6742 402.934 63.2614 403.313 62.9659C403.696 62.6667 404.112 62.4583 404.563 62.3409C405.018 62.2197 405.465 62.1591 405.904 62.1591C406.184 62.1591 406.506 62.1932 406.87 62.2614C407.237 62.3258 407.592 62.4602 407.933 62.6648C408.277 62.8693 408.563 63.178 408.79 63.5909C409.018 64.0038 409.131 64.5568 409.131 65.25V71H407.79V69.8182H407.722C407.631 70.0076 407.48 70.2102 407.268 70.4261C407.056 70.642 406.773 70.8258 406.421 70.9773C406.069 71.1288 405.639 71.2045 405.131 71.2045ZM405.336 70C405.866 70 406.313 69.8958 406.677 69.6875C407.044 69.4792 407.321 69.2102 407.506 68.8807C407.696 68.5511 407.79 68.2045 407.79 67.8409V66.6136C407.734 66.6818 407.609 66.7443 407.415 66.8011C407.226 66.8542 407.006 66.9015 406.756 66.9432C406.51 66.9811 406.27 67.0152 406.035 67.0455C405.804 67.072 405.616 67.0947 405.472 67.1136C405.124 67.1591 404.798 67.233 404.495 67.3352C404.196 67.4337 403.953 67.5833 403.768 67.7841C403.586 67.9811 403.495 68.25 403.495 68.5909C403.495 69.0568 403.667 69.4091 404.012 69.6477C404.361 69.8826 404.802 70 405.336 70ZM412.13 74.2727C411.903 74.2727 411.7 74.2538 411.522 74.2159C411.344 74.1818 411.221 74.1477 411.153 74.1136L411.494 72.9318C411.819 73.0152 412.107 73.0455 412.357 73.0227C412.607 73 412.829 72.8883 413.022 72.6875C413.219 72.4905 413.399 72.1705 413.562 71.7273L413.812 71.0455L410.585 62.2727H412.039L414.448 69.2273H414.539L416.948 62.2727H418.403L414.698 72.2727C414.531 72.7235 414.325 73.0966 414.079 73.392C413.833 73.6913 413.547 73.9129 413.221 74.0568C412.899 74.2008 412.535 74.2727 412.13 74.2727ZM424.854 71V59.3636H428.786C429.699 59.3636 430.445 59.5284 431.025 59.858C431.608 60.1837 432.04 60.625 432.32 61.1818C432.601 61.7386 432.741 62.3598 432.741 63.0455C432.741 63.7311 432.601 64.3542 432.32 64.9148C432.044 65.4754 431.616 65.9223 431.036 66.2557C430.457 66.5852 429.714 66.75 428.809 66.75H425.991V65.5H428.763C429.388 65.5 429.89 65.392 430.269 65.1761C430.648 64.9602 430.923 64.6686 431.093 64.3011C431.267 63.9299 431.354 63.5114 431.354 63.0455C431.354 62.5795 431.267 62.1629 431.093 61.7955C430.923 61.428 430.646 61.1402 430.263 60.9318C429.881 60.7197 429.373 60.6136 428.741 60.6136H426.263V71H424.854ZM436.17 65.75V71H434.829V59.3636H436.17V63.6364H436.283C436.488 63.1856 436.795 62.8277 437.204 62.5625C437.617 62.2936 438.166 62.1591 438.852 62.1591C439.446 62.1591 439.967 62.2784 440.414 62.517C440.861 62.7519 441.208 63.1136 441.454 63.6023C441.704 64.0871 441.829 64.7045 441.829 65.4545V71H440.488V65.5455C440.488 64.8523 440.308 64.3163 439.948 63.9375C439.592 63.5549 439.098 63.3636 438.465 63.3636C438.026 63.3636 437.632 63.4564 437.283 63.642C436.939 63.8277 436.666 64.0985 436.465 64.4545C436.268 64.8106 436.17 65.2424 436.17 65.75ZM449.782 67.4318V62.2727H451.123V71H449.782V69.5227H449.691C449.487 69.9659 449.168 70.3428 448.737 70.6534C448.305 70.9602 447.759 71.1136 447.1 71.1136C446.555 71.1136 446.07 70.9943 445.646 70.7557C445.221 70.5133 444.888 70.1496 444.646 69.6648C444.403 69.1761 444.282 68.5606 444.282 67.8182V62.2727H445.623V67.7273C445.623 68.3636 445.801 68.8712 446.157 69.25C446.517 69.6288 446.975 69.8182 447.532 69.8182C447.865 69.8182 448.204 69.733 448.549 69.5625C448.897 69.392 449.189 69.1307 449.424 68.7784C449.663 68.4261 449.782 67.9773 449.782 67.4318ZM447.1 61.0909L448.487 58.4545H450.055L448.282 61.0909H447.1ZM462.488 67.3636H464.033L465.329 69.0682L465.67 69.5227L467.602 72.0909H466.056L464.783 70.3864L464.465 69.9545L462.488 67.3636ZM468.079 65.1818C468.079 66.4091 467.857 67.4697 467.414 68.3636C466.971 69.2576 466.363 69.947 465.59 70.4318C464.817 70.9167 463.935 71.1591 462.942 71.1591C461.95 71.1591 461.067 70.9167 460.295 70.4318C459.522 69.947 458.914 69.2576 458.471 68.3636C458.028 67.4697 457.806 66.4091 457.806 65.1818C457.806 63.9545 458.028 62.8939 458.471 62C458.914 61.1061 459.522 60.4167 460.295 59.9318C461.067 59.447 461.95 59.2045 462.942 59.2045C463.935 59.2045 464.817 59.447 465.59 59.9318C466.363 60.4167 466.971 61.1061 467.414 62C467.857 62.8939 468.079 63.9545 468.079 65.1818ZM466.715 65.1818C466.715 64.1742 466.547 63.3239 466.21 62.6307C465.876 61.9375 465.424 61.4129 464.852 61.0568C464.283 60.7008 463.647 60.5227 462.942 60.5227C462.238 60.5227 461.6 60.7008 461.028 61.0568C460.46 61.4129 460.007 61.9375 459.67 62.6307C459.336 63.3239 459.17 64.1742 459.17 65.1818C459.17 66.1894 459.336 67.0398 459.67 67.733C460.007 68.4261 460.46 68.9508 461.028 69.3068C461.6 69.6629 462.238 69.8409 462.942 69.8409C463.647 69.8409 464.283 69.6629 464.852 69.3068C465.424 68.9508 465.876 68.4261 466.21 67.733C466.547 67.0398 466.715 66.1894 466.715 65.1818ZM475.766 67.4318V62.2727H477.107V71H475.766V69.5227H475.675C475.471 69.9659 475.153 70.3428 474.721 70.6534C474.289 70.9602 473.744 71.1136 473.085 71.1136C472.539 71.1136 472.054 70.9943 471.63 70.7557C471.206 70.5133 470.872 70.1496 470.63 69.6648C470.388 69.1761 470.266 68.5606 470.266 67.8182V62.2727H471.607V67.7273C471.607 68.3636 471.785 68.8712 472.141 69.25C472.501 69.6288 472.96 69.8182 473.516 69.8182C473.85 69.8182 474.189 69.733 474.533 69.5625C474.882 69.392 475.174 69.1307 475.408 68.7784C475.647 68.4261 475.766 67.9773 475.766 67.4318ZM483.109 71.1818C482.321 71.1818 481.629 70.9943 481.035 70.6193C480.444 70.2443 479.982 69.7197 479.648 69.0455C479.319 68.3712 479.154 67.5833 479.154 66.6818C479.154 65.7727 479.319 64.9792 479.648 64.3011C479.982 63.6231 480.444 63.0966 481.035 62.7216C481.629 62.3466 482.321 62.1591 483.109 62.1591C483.897 62.1591 484.586 62.3466 485.177 62.7216C485.772 63.0966 486.234 63.6231 486.563 64.3011C486.897 64.9792 487.063 65.7727 487.063 66.6818C487.063 67.5833 486.897 68.3712 486.563 69.0455C486.234 69.7197 485.772 70.2443 485.177 70.6193C484.586 70.9943 483.897 71.1818 483.109 71.1818ZM483.109 69.9773C483.707 69.9773 484.2 69.8239 484.586 69.517C484.972 69.2102 485.258 68.8068 485.444 68.3068C485.629 67.8068 485.722 67.2652 485.722 66.6818C485.722 66.0985 485.629 65.5549 485.444 65.0511C485.258 64.5473 484.972 64.1402 484.586 63.8295C484.2 63.5189 483.707 63.3636 483.109 63.3636C482.51 63.3636 482.018 63.5189 481.631 63.8295C481.245 64.1402 480.959 64.5473 480.773 65.0511C480.588 65.5549 480.495 66.0985 480.495 66.6818C480.495 67.2652 480.588 67.8068 480.773 68.3068C480.959 68.8068 481.245 69.2102 481.631 69.517C482.018 69.8239 482.51 69.9773 483.109 69.9773ZM480.177 61.1818L482.495 59.1136H483.745L486.063 61.1818H484.427L483.131 59.9773L481.836 61.1818H480.177ZM485.45 59.7955L486.563 57.75H488.222L486.631 59.7955H485.45ZM492.656 71.1818C491.837 71.1818 491.133 70.9886 490.542 70.6023C489.951 70.2159 489.496 69.6837 489.178 69.0057C488.86 68.3277 488.701 67.553 488.701 66.6818C488.701 65.7955 488.864 65.0133 489.19 64.3352C489.519 63.6534 489.978 63.1212 490.565 62.7386C491.156 62.3523 491.845 62.1591 492.633 62.1591C493.246 62.1591 493.799 62.2727 494.292 62.5C494.784 62.7273 495.188 63.0455 495.502 63.4545C495.817 63.8636 496.012 64.3409 496.087 64.8864H494.746C494.644 64.4886 494.417 64.1364 494.065 63.8295C493.716 63.5189 493.246 63.3636 492.656 63.3636C492.133 63.3636 491.674 63.5 491.281 63.7727C490.89 64.0417 490.585 64.4223 490.366 64.9148C490.15 65.4034 490.042 65.9773 490.042 66.6364C490.042 67.3106 490.148 67.8977 490.36 68.3977C490.576 68.8977 490.879 69.286 491.269 69.5625C491.663 69.839 492.125 69.9773 492.656 69.9773C493.004 69.9773 493.32 69.9167 493.604 69.7955C493.888 69.6742 494.129 69.5 494.326 69.2727C494.523 69.0455 494.663 68.7727 494.746 68.4545H496.087C496.012 68.9697 495.824 69.4337 495.525 69.8466C495.229 70.2557 494.837 70.5814 494.349 70.8239C493.864 71.0625 493.299 71.1818 492.656 71.1818ZM507.548 64.5568V65.8068H502.457V64.5568H507.548ZM400.517 93V91.9773L404.358 87.7727C404.809 87.2803 405.18 86.8523 405.472 86.4886C405.763 86.1212 405.979 85.7765 406.119 85.4545C406.263 85.1288 406.335 84.7879 406.335 84.4318C406.335 84.0227 406.237 83.6686 406.04 83.3693C405.847 83.0701 405.581 82.839 405.244 82.6761C404.907 82.5133 404.528 82.4318 404.108 82.4318C403.661 82.4318 403.271 82.5246 402.938 82.7102C402.608 82.892 402.352 83.1477 402.17 83.4773C401.992 83.8068 401.903 84.1932 401.903 84.6364H400.562C400.562 83.9545 400.72 83.3561 401.034 82.8409C401.348 82.3258 401.777 81.9242 402.318 81.6364C402.864 81.3485 403.475 81.2045 404.153 81.2045C404.835 81.2045 405.439 81.3485 405.966 81.6364C406.492 81.9242 406.905 82.3125 407.205 82.8011C407.504 83.2898 407.653 83.8333 407.653 84.4318C407.653 84.8598 407.576 85.2784 407.42 85.6875C407.269 86.0928 407.004 86.5455 406.625 87.0455C406.25 87.5417 405.729 88.1477 405.062 88.8636L402.449 91.6591V91.75H407.858V93H400.517ZM414 93.1591C413.144 93.1591 412.415 92.9261 411.812 92.4602C411.21 91.9905 410.75 91.3106 410.432 90.4205C410.114 89.5265 409.955 88.447 409.955 87.1818C409.955 85.9242 410.114 84.8504 410.432 83.9602C410.754 83.0663 411.216 82.3845 411.818 81.9148C412.424 81.4413 413.152 81.2045 414 81.2045C414.848 81.2045 415.574 81.4413 416.176 81.9148C416.782 82.3845 417.244 83.0663 417.562 83.9602C417.884 84.8504 418.045 85.9242 418.045 87.1818C418.045 88.447 417.886 89.5265 417.568 90.4205C417.25 91.3106 416.79 91.9905 416.188 92.4602C415.585 92.9261 414.856 93.1591 414 93.1591ZM414 91.9091C414.848 91.9091 415.508 91.5 415.977 90.6818C416.447 89.8636 416.682 88.697 416.682 87.1818C416.682 86.1742 416.574 85.3163 416.358 84.608C416.146 83.8996 415.839 83.3598 415.438 82.9886C415.04 82.6174 414.561 82.4318 414 82.4318C413.159 82.4318 412.502 82.8466 412.028 83.6761C411.555 84.5019 411.318 85.6705 411.318 87.1818C411.318 88.1894 411.424 89.0455 411.636 89.75C411.848 90.4545 412.153 90.9905 412.551 91.358C412.953 91.7254 413.436 91.9091 414 91.9091ZM424 93.1591C423.144 93.1591 422.415 92.9261 421.812 92.4602C421.21 91.9905 420.75 91.3106 420.432 90.4205C420.114 89.5265 419.955 88.447 419.955 87.1818C419.955 85.9242 420.114 84.8504 420.432 83.9602C420.754 83.0663 421.216 82.3845 421.818 81.9148C422.424 81.4413 423.152 81.2045 424 81.2045C424.848 81.2045 425.574 81.4413 426.176 81.9148C426.782 82.3845 427.244 83.0663 427.562 83.9602C427.884 84.8504 428.045 85.9242 428.045 87.1818C428.045 88.447 427.886 89.5265 427.568 90.4205C427.25 91.3106 426.79 91.9905 426.188 92.4602C425.585 92.9261 424.856 93.1591 424 93.1591ZM424 91.9091C424.848 91.9091 425.508 91.5 425.977 90.6818C426.447 89.8636 426.682 88.697 426.682 87.1818C426.682 86.1742 426.574 85.3163 426.358 84.608C426.146 83.8996 425.839 83.3598 425.438 82.9886C425.04 82.6174 424.561 82.4318 424 82.4318C423.159 82.4318 422.502 82.8466 422.028 83.6761C421.555 84.5019 421.318 85.6705 421.318 87.1818C421.318 88.1894 421.424 89.0455 421.636 89.75C421.848 90.4545 422.153 90.9905 422.551 91.358C422.953 91.7254 423.436 91.9091 424 91.9091ZM434 93.1591C433.144 93.1591 432.415 92.9261 431.812 92.4602C431.21 91.9905 430.75 91.3106 430.432 90.4205C430.114 89.5265 429.955 88.447 429.955 87.1818C429.955 85.9242 430.114 84.8504 430.432 83.9602C430.754 83.0663 431.216 82.3845 431.818 81.9148C432.424 81.4413 433.152 81.2045 434 81.2045C434.848 81.2045 435.574 81.4413 436.176 81.9148C436.782 82.3845 437.244 83.0663 437.562 83.9602C437.884 84.8504 438.045 85.9242 438.045 87.1818C438.045 88.447 437.886 89.5265 437.568 90.4205C437.25 91.3106 436.79 91.9905 436.188 92.4602C435.585 92.9261 434.856 93.1591 434 93.1591ZM434 91.9091C434.848 91.9091 435.508 91.5 435.977 90.6818C436.447 89.8636 436.682 88.697 436.682 87.1818C436.682 86.1742 436.574 85.3163 436.358 84.608C436.146 83.8996 435.839 83.3598 435.438 82.9886C435.04 82.6174 434.561 82.4318 434 82.4318C433.159 82.4318 432.502 82.8466 432.028 83.6761C431.555 84.5019 431.318 85.6705 431.318 87.1818C431.318 88.1894 431.424 89.0455 431.636 89.75C431.848 90.4545 432.153 90.9905 432.551 91.358C432.953 91.7254 433.436 91.9091 434 91.9091ZM448.523 84.2727V85.4091H444V84.2727H448.523ZM445.318 82.1818H446.659V90.5C446.659 90.8788 446.714 91.1629 446.824 91.3523C446.938 91.5379 447.081 91.6629 447.256 91.7273C447.434 91.7879 447.621 91.8182 447.818 91.8182C447.966 91.8182 448.087 91.8106 448.182 91.7955C448.277 91.7765 448.352 91.7614 448.409 91.75L448.682 92.9545C448.591 92.9886 448.464 93.0227 448.301 93.0568C448.138 93.0947 447.932 93.1136 447.682 93.1136C447.303 93.1136 446.932 93.0322 446.568 92.8693C446.208 92.7064 445.909 92.4583 445.67 92.125C445.436 91.7917 445.318 91.3712 445.318 90.8636V82.1818ZM453.108 93.2045C452.555 93.2045 452.053 93.1004 451.602 92.892C451.152 92.6799 450.794 92.375 450.528 91.9773C450.263 91.5758 450.131 91.0909 450.131 90.5227C450.131 90.0227 450.229 89.6174 450.426 89.3068C450.623 88.9924 450.886 88.7462 451.216 88.5682C451.545 88.3902 451.909 88.2576 452.307 88.1705C452.708 88.0795 453.112 88.0076 453.517 87.9545C454.047 87.8864 454.477 87.8352 454.807 87.8011C455.14 87.7633 455.383 87.7008 455.534 87.6136C455.689 87.5265 455.767 87.375 455.767 87.1591V87.1136C455.767 86.553 455.614 86.1174 455.307 85.8068C455.004 85.4962 454.544 85.3409 453.926 85.3409C453.286 85.3409 452.784 85.4811 452.42 85.7614C452.057 86.0417 451.801 86.3409 451.653 86.6591L450.381 86.2045C450.608 85.6742 450.911 85.2614 451.29 84.9659C451.672 84.6667 452.089 84.4583 452.54 84.3409C452.994 84.2197 453.441 84.1591 453.881 84.1591C454.161 84.1591 454.483 84.1932 454.847 84.2614C455.214 84.3258 455.568 84.4602 455.909 84.6648C456.254 84.8693 456.54 85.178 456.767 85.5909C456.994 86.0038 457.108 86.5568 457.108 87.25V93H455.767V91.8182H455.699C455.608 92.0076 455.456 92.2102 455.244 92.4261C455.032 92.642 454.75 92.8258 454.398 92.9773C454.045 93.1288 453.616 93.2045 453.108 93.2045ZM453.312 92C453.843 92 454.29 91.8958 454.653 91.6875C455.021 91.4792 455.297 91.2102 455.483 90.8807C455.672 90.5511 455.767 90.2045 455.767 89.8409V88.6136C455.71 88.6818 455.585 88.7443 455.392 88.8011C455.203 88.8542 454.983 88.9015 454.733 88.9432C454.487 88.9811 454.246 89.0152 454.011 89.0455C453.78 89.072 453.593 89.0947 453.449 89.1136C453.1 89.1591 452.775 89.233 452.472 89.3352C452.172 89.4337 451.93 89.5833 451.744 89.7841C451.563 89.9811 451.472 90.25 451.472 90.5909C451.472 91.0568 451.644 91.4091 451.989 91.6477C452.337 91.8826 452.778 92 453.312 92ZM451.04 83.1818L453.358 81.1136H454.608L456.926 83.1818H455.29L453.994 81.9773L452.699 83.1818H451.04ZM456.312 81.7955L457.426 79.75H459.085L457.494 81.7955H456.312ZM460.896 87.75V93H459.555V84.2727H460.851V85.6364H460.964C461.169 85.1932 461.48 84.8371 461.896 84.5682C462.313 84.2955 462.851 84.1591 463.51 84.1591C464.101 84.1591 464.618 84.2803 465.061 84.5227C465.504 84.7614 465.849 85.125 466.095 85.6136C466.341 86.0985 466.464 86.7121 466.464 87.4545V93H465.124V87.5455C465.124 86.8598 464.946 86.3258 464.589 85.9432C464.233 85.5568 463.745 85.3636 463.124 85.3636C462.696 85.3636 462.313 85.4564 461.976 85.642C461.643 85.8277 461.379 86.0985 461.186 86.4545C460.993 86.8106 460.896 87.2424 460.896 87.75Z" fill="#283678"/>
<path d="M43.6552 55V52.2301L50.1272 46.2376C50.6776 45.7049 51.1392 45.2255 51.5121 44.7994C51.8909 44.3732 52.1779 43.956 52.3732 43.5476C52.5686 43.1333 52.6662 42.6864 52.6662 42.207C52.6662 41.6744 52.5449 41.2157 52.3022 40.831C52.0596 40.4403 51.7281 40.1415 51.3079 39.9343C50.8877 39.7212 50.4112 39.6147 49.8786 39.6147C49.3222 39.6147 48.8369 39.7272 48.4226 39.9521C48.0083 40.177 47.6887 40.4995 47.4638 40.9197C47.2389 41.34 47.1264 41.8401 47.1264 42.4201H43.4776C43.4776 41.2305 43.7469 40.1977 44.2855 39.3217C44.8241 38.4458 45.5787 37.7681 46.5494 37.2887C47.52 36.8093 48.6386 36.5696 49.9052 36.5696C51.2073 36.5696 52.3407 36.8004 53.3054 37.2621C54.2761 37.7178 55.0307 38.3511 55.5693 39.1619C56.1079 39.9728 56.3772 40.902 56.3772 41.9496C56.3772 42.6361 56.241 43.3138 55.9688 43.9826C55.7024 44.6514 55.226 45.3942 54.5394 46.2109C53.8529 47.0218 52.8852 47.9954 51.6364 49.1317L48.9819 51.733V51.8572H56.6169V55H43.6552ZM66.5312 55.3995C65.0042 55.3936 63.6903 55.0178 62.5894 54.272C61.4945 53.5263 60.6511 52.4461 60.0592 51.0316C59.4733 49.6171 59.1833 47.9155 59.1892 45.9268C59.1892 43.9441 59.4822 42.2544 60.0681 40.8576C60.66 39.4608 61.5034 38.3984 62.5983 37.6705C63.6992 36.9366 65.0101 36.5696 66.5312 36.5696C68.0523 36.5696 69.3603 36.9366 70.4552 37.6705C71.556 38.4044 72.4024 39.4697 72.9943 40.8665C73.5861 42.2573 73.8791 43.9441 73.8732 45.9268C73.8732 47.9214 73.5772 49.6259 72.9854 51.0405C72.3994 52.455 71.559 53.5352 70.4641 54.2809C69.3691 55.0266 68.0582 55.3995 66.5312 55.3995ZM66.5312 52.2124C67.5728 52.2124 68.4044 51.6886 69.0259 50.641C69.6473 49.5934 69.9551 48.022 69.9492 45.9268C69.9492 44.5478 69.8071 43.3996 69.523 42.4822C69.2448 41.5649 68.8483 40.8754 68.3334 40.4137C67.8244 39.9521 67.2237 39.7212 66.5312 39.7212C65.4954 39.7212 64.6668 40.2391 64.0454 41.2749C63.4239 42.3106 63.1103 43.8613 63.1043 45.9268C63.1043 47.3236 63.2434 48.4896 63.5216 49.4247C63.8057 50.3539 64.2052 51.0523 64.7201 51.5199C65.235 51.9815 65.8387 52.2124 66.5312 52.2124ZM83.7431 55.3995C82.2161 55.3936 80.9022 55.0178 79.8013 54.272C78.7064 53.5263 77.863 52.4461 77.2712 51.0316C76.6852 49.6171 76.3952 47.9155 76.4011 45.9268C76.4011 43.9441 76.6941 42.2544 77.28 40.8576C77.8719 39.4608 78.7153 38.3984 79.8102 37.6705C80.9111 36.9366 82.222 36.5696 83.7431 36.5696C85.2642 36.5696 86.5722 36.9366 87.6671 37.6705C88.768 38.4044 89.6143 39.4697 90.2062 40.8665C90.798 42.2573 91.091 43.9441 91.0851 45.9268C91.0851 47.9214 90.7891 49.6259 90.1973 51.0405C89.6113 52.455 88.7709 53.5352 87.676 54.2809C86.581 55.0266 85.2701 55.3995 83.7431 55.3995ZM83.7431 52.2124C84.7848 52.2124 85.6163 51.6886 86.2378 50.641C86.8592 49.5934 87.167 48.022 87.1611 45.9268C87.1611 44.5478 87.019 43.3996 86.7349 42.4822C86.4568 41.5649 86.0602 40.8754 85.5453 40.4137C85.0363 39.9521 84.4356 39.7212 83.7431 39.7212C82.7073 39.7212 81.8788 40.2391 81.2573 41.2749C80.6359 42.3106 80.3222 43.8613 80.3162 45.9268C80.3162 47.3236 80.4553 48.4896 80.7335 49.4247C81.0176 50.3539 81.4171 51.0523 81.932 51.5199C82.4469 51.9815 83.0506 52.2124 83.7431 52.2124ZM101.736 36.8182V55H97.8922V40.467H97.7856L93.6219 43.0771V39.668L98.123 36.8182H101.736Z" fill="#9A9999"/>
<path d="M132.042 326.18V323.41L138.514 317.418C139.064 316.885 139.526 316.405 139.899 315.979C140.278 315.553 140.565 315.136 140.76 314.728C140.955 314.313 141.053 313.866 141.053 313.387C141.053 312.854 140.932 312.396 140.689 312.011C140.446 311.62 140.115 311.321 139.695 311.114C139.274 310.901 138.798 310.795 138.265 310.795C137.709 310.795 137.224 310.907 136.809 311.132C136.395 311.357 136.075 311.679 135.851 312.1C135.626 312.52 135.513 313.02 135.513 313.6H131.864C131.864 312.41 132.134 311.378 132.672 310.502C133.211 309.626 133.965 308.948 134.936 308.469C135.907 307.989 137.025 307.75 138.292 307.75C139.594 307.75 140.727 307.98 141.692 308.442C142.663 308.898 143.417 309.531 143.956 310.342C144.495 311.153 144.764 312.082 144.764 313.13C144.764 313.816 144.628 314.494 144.355 315.163C144.089 315.831 143.613 316.574 142.926 317.391C142.24 318.202 141.272 319.175 140.023 320.312L137.369 322.913V323.037H145.004V326.18H132.042ZM154.918 326.579C153.391 326.574 152.077 326.198 150.976 325.452C149.881 324.706 149.038 323.626 148.446 322.212C147.86 320.797 147.57 319.095 147.576 317.107C147.576 315.124 147.869 313.434 148.455 312.038C149.047 310.641 149.89 309.578 150.985 308.85C152.086 308.116 153.397 307.75 154.918 307.75C156.439 307.75 157.747 308.116 158.842 308.85C159.943 309.584 160.789 310.65 161.381 312.046C161.973 313.437 162.266 315.124 162.26 317.107C162.26 319.101 161.964 320.806 161.372 322.22C160.786 323.635 159.946 324.715 158.851 325.461C157.756 326.207 156.445 326.579 154.918 326.579ZM154.918 323.392C155.96 323.392 156.791 322.868 157.413 321.821C158.034 320.773 158.342 319.202 158.336 317.107C158.336 315.728 158.194 314.58 157.91 313.662C157.632 312.745 157.235 312.055 156.72 311.594C156.211 311.132 155.61 310.901 154.918 310.901C153.882 310.901 153.054 311.419 152.432 312.455C151.811 313.491 151.497 315.041 151.491 317.107C151.491 318.504 151.63 319.67 151.908 320.605C152.192 321.534 152.592 322.232 153.107 322.7C153.622 323.161 154.225 323.392 154.918 323.392ZM172.13 326.579C170.603 326.574 169.289 326.198 168.188 325.452C167.093 324.706 166.25 323.626 165.658 322.212C165.072 320.797 164.782 319.095 164.788 317.107C164.788 315.124 165.081 313.434 165.667 312.038C166.259 310.641 167.102 309.578 168.197 308.85C169.298 308.116 170.609 307.75 172.13 307.75C173.651 307.75 174.959 308.116 176.054 308.85C177.155 309.584 178.001 310.65 178.593 312.046C179.185 313.437 179.478 315.124 179.472 317.107C179.472 319.101 179.176 320.806 178.584 322.22C177.998 323.635 177.158 324.715 176.063 325.461C174.968 326.207 173.657 326.579 172.13 326.579ZM172.13 323.392C173.171 323.392 174.003 322.868 174.624 321.821C175.246 320.773 175.554 319.202 175.548 317.107C175.548 315.728 175.406 314.58 175.122 313.662C174.843 312.745 174.447 312.055 173.932 311.594C173.423 311.132 172.822 310.901 172.13 310.901C171.094 310.901 170.265 311.419 169.644 312.455C169.023 313.491 168.709 315.041 168.703 317.107C168.703 318.504 168.842 319.67 169.12 320.605C169.404 321.534 169.804 322.232 170.319 322.7C170.834 323.161 171.437 323.392 172.13 323.392ZM182.213 326.18V323.41L188.685 317.418C189.235 316.885 189.697 316.405 190.07 315.979C190.449 315.553 190.736 315.136 190.931 314.728C191.126 314.313 191.224 313.866 191.224 313.387C191.224 312.854 191.103 312.396 190.86 312.011C190.617 311.62 190.286 311.321 189.866 311.114C189.445 310.901 188.969 310.795 188.436 310.795C187.88 310.795 187.395 310.907 186.98 311.132C186.566 311.357 186.246 311.679 186.021 312.1C185.797 312.52 185.684 313.02 185.684 313.6H182.035C182.035 312.41 182.305 311.378 182.843 310.502C183.382 309.626 184.136 308.948 185.107 308.469C186.078 307.989 187.196 307.75 188.463 307.75C189.765 307.75 190.898 307.98 191.863 308.442C192.834 308.898 193.588 309.531 194.127 310.342C194.665 311.153 194.935 312.082 194.935 313.13C194.935 313.816 194.799 314.494 194.526 315.163C194.26 315.831 193.784 316.574 193.097 317.391C192.411 318.202 191.443 319.175 190.194 320.312L187.54 322.913V323.037H195.174V326.18H182.213Z" fill="#9A9999"/>
<path d="M313.015 326.18V323.41L319.487 317.418C320.037 316.885 320.499 316.405 320.871 315.979C321.25 315.553 321.537 315.136 321.733 314.728C321.928 314.313 322.026 313.866 322.026 313.387C322.026 312.854 321.904 312.396 321.662 312.011C321.419 311.62 321.087 311.321 320.667 311.114C320.247 310.901 319.771 310.795 319.238 310.795C318.682 310.795 318.196 310.907 317.782 311.132C317.368 311.357 317.048 311.679 316.823 312.1C316.598 312.52 316.486 313.02 316.486 313.6H312.837C312.837 312.41 313.106 311.378 313.645 310.502C314.183 309.626 314.938 308.948 315.909 308.469C316.879 307.989 317.998 307.75 319.265 307.75C320.567 307.75 321.7 307.98 322.665 308.442C323.635 308.898 324.39 309.531 324.929 310.342C325.467 311.153 325.737 312.082 325.737 313.13C325.737 313.816 325.6 314.494 325.328 315.163C325.062 315.831 324.585 316.574 323.899 317.391C323.212 318.202 322.245 319.175 320.996 320.312L318.341 322.913V323.037H325.976V326.18H313.015ZM335.891 326.579C334.364 326.574 333.05 326.198 331.949 325.452C330.854 324.706 330.01 323.626 329.419 322.212C328.833 320.797 328.543 319.095 328.549 317.107C328.549 315.124 328.842 313.434 329.427 312.038C330.019 310.641 330.863 309.578 331.958 308.85C333.059 308.116 334.369 307.75 335.891 307.75C337.412 307.75 338.72 308.116 339.815 308.85C340.915 309.584 341.762 310.65 342.354 312.046C342.945 313.437 343.238 315.124 343.233 317.107C343.233 319.101 342.937 320.806 342.345 322.22C341.759 323.635 340.918 324.715 339.823 325.461C338.729 326.207 337.418 326.579 335.891 326.579ZM335.891 323.392C336.932 323.392 337.764 322.868 338.385 321.821C339.007 320.773 339.314 319.202 339.309 317.107C339.309 315.728 339.166 314.58 338.882 313.662C338.604 312.745 338.208 312.055 337.693 311.594C337.184 311.132 336.583 310.901 335.891 310.901C334.855 310.901 334.026 311.419 333.405 312.455C332.783 313.491 332.47 315.041 332.464 317.107C332.464 318.504 332.603 319.67 332.881 320.605C333.165 321.534 333.565 322.232 334.079 322.7C334.594 323.161 335.198 323.392 335.891 323.392ZM353.102 326.579C351.575 326.574 350.262 326.198 349.161 325.452C348.066 324.706 347.222 323.626 346.631 322.212C346.045 320.797 345.755 319.095 345.76 317.107C345.76 315.124 346.053 313.434 346.639 312.038C347.231 310.641 348.075 309.578 349.17 308.85C350.27 308.116 351.581 307.75 353.102 307.75C354.624 307.75 355.932 308.116 357.026 308.85C358.127 309.584 358.974 310.65 359.566 312.046C360.157 313.437 360.45 315.124 360.444 317.107C360.444 319.101 360.149 320.806 359.557 322.22C358.971 323.635 358.13 324.715 357.035 325.461C355.94 326.207 354.629 326.579 353.102 326.579ZM353.102 323.392C354.144 323.392 354.976 322.868 355.597 321.821C356.219 320.773 356.526 319.202 356.52 317.107C356.52 315.728 356.378 314.58 356.094 313.662C355.816 312.745 355.42 312.055 354.905 311.594C354.396 311.132 353.795 310.901 353.102 310.901C352.067 310.901 351.238 311.419 350.617 312.455C349.995 313.491 349.682 315.041 349.676 317.107C349.676 318.504 349.815 319.67 350.093 320.605C350.377 321.534 350.776 322.232 351.291 322.7C351.806 323.161 352.41 323.392 353.102 323.392ZM363.416 326.18L370.954 311.265V311.141H362.173V307.998H374.931V311.185L367.385 326.18H363.416Z" fill="#9A9999"/>
<path d="M495.552 326.18V323.41L502.024 317.418C502.574 316.885 503.036 316.405 503.409 315.979C503.787 315.553 504.074 315.136 504.27 314.728C504.465 314.313 504.563 313.866 504.563 313.387C504.563 312.854 504.441 312.396 504.199 312.011C503.956 311.62 503.625 311.321 503.204 311.114C502.784 310.901 502.308 310.795 501.775 310.795C501.219 310.795 500.733 310.907 500.319 311.132C499.905 311.357 499.585 311.679 499.36 312.1C499.135 312.52 499.023 313.02 499.023 313.6H495.374C495.374 312.41 495.643 311.378 496.182 310.502C496.721 309.626 497.475 308.948 498.446 308.469C499.417 307.989 500.535 307.75 501.802 307.75C503.104 307.75 504.237 307.98 505.202 308.442C506.173 308.898 506.927 309.531 507.466 310.342C508.004 311.153 508.274 312.082 508.274 313.13C508.274 313.816 508.138 314.494 507.865 315.163C507.599 315.831 507.122 316.574 506.436 317.391C505.749 318.202 504.782 319.175 503.533 320.312L500.878 322.913V323.037H508.513V326.18H495.552ZM518.428 326.579C516.901 326.574 515.587 326.198 514.486 325.452C513.391 324.706 512.548 323.626 511.956 322.212C511.37 320.797 511.08 319.095 511.086 317.107C511.086 315.124 511.379 313.434 511.965 312.038C512.556 310.641 513.4 309.578 514.495 308.85C515.596 308.116 516.907 307.75 518.428 307.75C519.949 307.75 521.257 308.116 522.352 308.85C523.453 309.584 524.299 310.65 524.891 312.046C525.483 313.437 525.776 315.124 525.77 317.107C525.77 319.101 525.474 320.806 524.882 322.22C524.296 323.635 523.455 324.715 522.361 325.461C521.266 326.207 519.955 326.579 518.428 326.579ZM518.428 323.392C519.469 323.392 520.301 322.868 520.922 321.821C521.544 320.773 521.852 319.202 521.846 317.107C521.846 315.728 521.704 314.58 521.419 313.662C521.141 312.745 520.745 312.055 520.23 311.594C519.721 311.132 519.12 310.901 518.428 310.901C517.392 310.901 516.563 311.419 515.942 312.455C515.32 313.491 515.007 315.041 515.001 317.107C515.001 318.504 515.14 319.67 515.418 320.605C515.702 321.534 516.102 322.232 516.617 322.7C517.132 323.161 517.735 323.392 518.428 323.392ZM536.421 307.998V326.18H532.577V311.647H532.47L528.306 314.257V310.848L532.808 307.998H536.421ZM541.461 326.18L548.999 311.265V311.141H540.218V307.998H552.976V311.185L545.43 326.18H541.461Z" fill="#9A9999"/>
<path d="M673.279 326.18V323.41L679.751 317.418C680.302 316.885 680.763 316.405 681.136 315.979C681.515 315.553 681.802 315.136 681.997 314.728C682.193 314.313 682.29 313.866 682.29 313.387C682.29 312.854 682.169 312.396 681.926 312.011C681.684 311.62 681.352 311.321 680.932 311.114C680.512 310.901 680.035 310.795 679.503 310.795C678.946 310.795 678.461 310.907 678.047 311.132C677.632 311.357 677.313 311.679 677.088 312.1C676.863 312.52 676.75 313.02 676.75 313.6H673.102C673.102 312.41 673.371 311.378 673.91 310.502C674.448 309.626 675.203 308.948 676.173 308.469C677.144 307.989 678.263 307.75 679.529 307.75C680.831 307.75 681.965 307.98 682.929 308.442C683.9 308.898 684.655 309.531 685.193 310.342C685.732 311.153 686.001 312.082 686.001 313.13C686.001 313.816 685.865 314.494 685.593 315.163C685.326 315.831 684.85 316.574 684.163 317.391C683.477 318.202 682.509 319.175 681.26 320.312L678.606 322.913V323.037H686.241V326.18H673.279ZM696.155 326.579C694.628 326.574 693.314 326.198 692.213 325.452C691.119 324.706 690.275 323.626 689.683 322.212C689.097 320.797 688.807 319.095 688.813 317.107C688.813 315.124 689.106 313.434 689.692 312.038C690.284 310.641 691.127 309.578 692.222 308.85C693.323 308.116 694.634 307.75 696.155 307.75C697.676 307.75 698.984 308.116 700.079 308.85C701.18 309.584 702.026 310.65 702.618 312.046C703.21 313.437 703.503 315.124 703.497 317.107C703.497 319.101 703.201 320.806 702.609 322.22C702.023 323.635 701.183 324.715 700.088 325.461C698.993 326.207 697.682 326.579 696.155 326.579ZM696.155 323.392C697.197 323.392 698.028 322.868 698.65 321.821C699.271 320.773 699.579 319.202 699.573 317.107C699.573 315.728 699.431 314.58 699.147 313.662C698.869 312.745 698.472 312.055 697.957 311.594C697.448 311.132 696.848 310.901 696.155 310.901C695.119 310.901 694.291 311.419 693.669 312.455C693.048 313.491 692.734 315.041 692.728 317.107C692.728 318.504 692.867 319.67 693.146 320.605C693.43 321.534 693.829 322.232 694.344 322.7C694.859 323.161 695.463 323.392 696.155 323.392ZM706.238 326.18V323.41L712.71 317.418C713.261 316.885 713.722 316.405 714.095 315.979C714.474 315.553 714.761 315.136 714.956 314.728C715.152 314.313 715.249 313.866 715.249 313.387C715.249 312.854 715.128 312.396 714.885 312.011C714.643 311.62 714.311 311.321 713.891 311.114C713.471 310.901 712.994 310.795 712.462 310.795C711.905 310.795 711.42 310.907 711.006 311.132C710.591 311.357 710.272 311.679 710.047 312.1C709.822 312.52 709.709 313.02 709.709 313.6H706.061C706.061 312.41 706.33 311.378 706.869 310.502C707.407 309.626 708.162 308.948 709.132 308.469C710.103 307.989 711.222 307.75 712.488 307.75C713.79 307.75 714.924 307.98 715.888 308.442C716.859 308.898 717.614 309.531 718.152 310.342C718.691 311.153 718.96 312.082 718.96 313.13C718.96 313.816 718.824 314.494 718.552 315.163C718.285 315.831 717.809 316.574 717.122 317.391C716.436 318.202 715.468 319.175 714.219 320.312L711.565 322.913V323.037H719.2V326.18H706.238ZM728.706 326.429C727.38 326.429 726.199 326.201 725.164 325.745C724.134 325.283 723.32 324.65 722.722 323.845C722.13 323.034 721.825 322.099 721.808 321.04H725.678C725.702 321.484 725.847 321.874 726.113 322.212C726.386 322.543 726.747 322.8 727.197 322.984C727.646 323.167 728.152 323.259 728.715 323.259C729.301 323.259 729.819 323.156 730.268 322.948C730.718 322.741 731.07 322.454 731.325 322.087C731.579 321.72 731.707 321.297 731.707 320.818C731.707 320.332 731.57 319.903 731.298 319.53C731.032 319.152 730.647 318.856 730.144 318.643C729.647 318.43 729.055 318.323 728.368 318.323H726.673V315.5H728.368C728.948 315.5 729.46 315.399 729.904 315.198C730.354 314.997 730.703 314.719 730.952 314.364C731.2 314.002 731.325 313.582 731.325 313.103C731.325 312.647 731.215 312.248 730.996 311.904C730.783 311.555 730.481 311.283 730.091 311.088C729.706 310.892 729.256 310.795 728.741 310.795C728.22 310.795 727.744 310.889 727.312 311.079C726.88 311.262 726.534 311.526 726.273 311.869C726.013 312.212 725.874 312.615 725.856 313.076H722.172C722.189 312.029 722.488 311.105 723.068 310.306C723.648 309.507 724.43 308.883 725.412 308.433C726.401 307.977 727.516 307.75 728.759 307.75C730.014 307.75 731.112 307.977 732.053 308.433C732.994 308.889 733.725 309.504 734.246 310.28C734.772 311.049 735.033 311.913 735.027 312.872C735.033 313.89 734.716 314.739 734.077 315.42C733.444 316.101 732.618 316.533 731.6 316.716V316.858C732.938 317.03 733.956 317.494 734.654 318.252C735.358 319.004 735.707 319.945 735.702 321.075C735.707 322.111 735.409 323.031 734.805 323.836C734.207 324.641 733.381 325.274 732.328 325.736C731.274 326.198 730.067 326.429 728.706 326.429Z" fill="#9A9999"/>
<path d="M221.808 55V52.2301L228.28 46.2376C228.83 45.7049 229.292 45.2255 229.665 44.7994C230.044 44.3732 230.331 43.956 230.526 43.5476C230.721 43.1333 230.819 42.6864 230.819 42.207C230.819 41.6744 230.698 41.2157 230.455 40.831C230.212 40.4403 229.881 40.1415 229.461 39.9343C229.041 39.7212 228.564 39.6147 228.031 39.6147C227.475 39.6147 226.99 39.7272 226.575 39.9521C226.161 40.177 225.842 40.4995 225.617 40.9197C225.392 41.34 225.279 41.8401 225.279 42.4201H221.63C221.63 41.2305 221.9 40.1977 222.438 39.3217C222.977 38.4458 223.732 37.7681 224.702 37.2887C225.673 36.8093 226.791 36.5696 228.058 36.5696C229.36 36.5696 230.494 36.8004 231.458 37.2621C232.429 37.7178 233.184 38.3511 233.722 39.1619C234.261 39.9728 234.53 40.902 234.53 41.9496C234.53 42.6361 234.394 43.3138 234.122 43.9826C233.855 44.6514 233.379 45.3942 232.692 46.2109C232.006 47.0218 231.038 47.9954 229.789 49.1317L227.135 51.733V51.8572H234.77V55H221.808ZM244.684 55.3995C243.157 55.3936 241.843 55.0178 240.742 54.272C239.647 53.5263 238.804 52.4461 238.212 51.0316C237.626 49.6171 237.336 47.9155 237.342 45.9268C237.342 43.9441 237.635 42.2544 238.221 40.8576C238.813 39.4608 239.656 38.3984 240.751 37.6705C241.852 36.9366 243.163 36.5696 244.684 36.5696C246.205 36.5696 247.513 36.9366 248.608 37.6705C249.709 38.4044 250.555 39.4697 251.147 40.8665C251.739 42.2573 252.032 43.9441 252.026 45.9268C252.026 47.9214 251.73 49.6259 251.138 51.0405C250.552 52.455 249.712 53.5352 248.617 54.2809C247.522 55.0266 246.211 55.3995 244.684 55.3995ZM244.684 52.2124C245.726 52.2124 246.557 51.6886 247.179 50.641C247.8 49.5934 248.108 48.022 248.102 45.9268C248.102 44.5478 247.96 43.3996 247.676 42.4822C247.398 41.5649 247.001 40.8754 246.486 40.4137C245.977 39.9521 245.376 39.7212 244.684 39.7212C243.648 39.7212 242.82 40.2391 242.198 41.2749C241.577 42.3106 241.263 43.8613 241.257 45.9268C241.257 47.3236 241.396 48.4896 241.674 49.4247C241.959 50.3539 242.358 51.0523 242.873 51.5199C243.388 51.9815 243.992 52.2124 244.684 52.2124ZM261.896 55.3995C260.369 55.3936 259.055 55.0178 257.954 54.272C256.859 53.5263 256.016 52.4461 255.424 51.0316C254.838 49.6171 254.548 47.9155 254.554 45.9268C254.554 43.9441 254.847 42.2544 255.433 40.8576C256.025 39.4608 256.868 38.3984 257.963 37.6705C259.064 36.9366 260.375 36.5696 261.896 36.5696C263.417 36.5696 264.725 36.9366 265.82 37.6705C266.921 38.4044 267.767 39.4697 268.359 40.8665C268.951 42.2573 269.244 43.9441 269.238 45.9268C269.238 47.9214 268.942 49.6259 268.35 51.0405C267.764 52.455 266.924 53.5352 265.829 54.2809C264.734 55.0266 263.423 55.3995 261.896 55.3995ZM261.896 52.2124C262.938 52.2124 263.769 51.6886 264.391 50.641C265.012 49.5934 265.32 48.022 265.314 45.9268C265.314 44.5478 265.172 43.3996 264.888 42.4822C264.61 41.5649 264.213 40.8754 263.698 40.4137C263.189 39.9521 262.588 39.7212 261.896 39.7212C260.86 39.7212 260.032 40.2391 259.41 41.2749C258.789 42.3106 258.475 43.8613 258.469 45.9268C258.469 47.3236 258.608 48.4896 258.886 49.4247C259.17 50.3539 259.57 51.0523 260.085 51.5199C260.6 51.9815 261.203 52.2124 261.896 52.2124ZM278.957 55.2486C278.022 55.2427 277.119 55.0858 276.249 54.7781C275.385 54.4703 274.61 53.9702 273.923 53.2777C273.237 52.5852 272.692 51.6679 272.29 50.5256C271.893 49.3833 271.695 47.9806 271.695 46.3175C271.701 44.7905 271.875 43.4263 272.219 42.2248C272.568 41.0174 273.065 39.9935 273.71 39.1531C274.361 38.3126 275.139 37.6734 276.045 37.2354C276.951 36.7915 277.966 36.5696 279.09 36.5696C280.303 36.5696 281.375 36.8063 282.304 37.2798C283.233 37.7474 283.979 38.3836 284.541 39.1886C285.109 39.9935 285.453 40.8961 285.571 41.8963H281.78C281.632 41.263 281.321 40.7659 280.848 40.4048C280.374 40.0438 279.788 39.8633 279.09 39.8633C277.906 39.8633 277.007 40.3782 276.391 41.408C275.782 42.4379 275.471 43.8376 275.459 45.6072H275.583C275.856 45.0687 276.223 44.61 276.684 44.2312C277.152 43.8465 277.681 43.5535 278.273 43.3523C278.871 43.1451 279.501 43.0415 280.164 43.0415C281.241 43.0415 282.2 43.296 283.041 43.805C283.881 44.3081 284.544 45.0006 285.029 45.8825C285.515 46.7643 285.757 47.7734 285.757 48.9098C285.757 50.1409 285.47 51.2358 284.896 52.1946C284.328 53.1534 283.532 53.9051 282.508 54.4496C281.49 54.9882 280.306 55.2545 278.957 55.2486ZM278.939 52.2301C279.531 52.2301 280.061 52.0881 280.528 51.804C280.996 51.5199 281.363 51.1352 281.629 50.6499C281.895 50.1645 282.029 49.62 282.029 49.0163C282.029 48.4126 281.895 47.8711 281.629 47.3917C281.369 46.9123 281.008 46.5305 280.546 46.2464C280.084 45.9624 279.558 45.8203 278.966 45.8203C278.522 45.8203 278.111 45.9032 277.732 46.0689C277.359 46.2346 277.03 46.4654 276.746 46.7614C276.468 47.0573 276.249 47.4006 276.089 47.7912C275.93 48.1759 275.85 48.5872 275.85 49.0252C275.85 49.6112 275.983 50.1468 276.249 50.6321C276.521 51.1174 276.888 51.5051 277.35 51.7951C277.818 52.0851 278.347 52.2301 278.939 52.2301Z" fill="#9A9999"/>
<path d="M406.726 24V21.2301L413.197 15.2376C413.748 14.7049 414.21 14.2255 414.582 13.7994C414.961 13.3732 415.248 12.956 415.444 12.5476C415.639 12.1333 415.737 11.6864 415.737 11.207C415.737 10.6744 415.615 10.2157 415.373 9.83097C415.13 9.44034 414.798 9.14145 414.378 8.9343C413.958 8.72124 413.482 8.6147 412.949 8.6147C412.393 8.6147 411.907 8.72715 411.493 8.95206C411.079 9.17696 410.759 9.49953 410.534 9.91974C410.309 10.34 410.197 10.8401 410.197 11.4201H406.548C406.548 10.2305 406.817 9.19768 407.356 8.32173C407.894 7.44579 408.649 6.76811 409.62 6.28871C410.59 5.8093 411.709 5.5696 412.976 5.5696C414.278 5.5696 415.411 5.80043 416.376 6.26207C417.346 6.7178 418.101 7.35109 418.64 8.16193C419.178 8.97277 419.447 9.90199 419.447 10.9496C419.447 11.6361 419.311 12.3138 419.039 12.9826C418.773 13.6514 418.296 14.3942 417.61 15.2109C416.923 16.0218 415.956 16.9954 414.707 18.1317L412.052 20.733V20.8572H419.687V24H406.726ZM429.601 24.3995C428.075 24.3936 426.761 24.0178 425.66 23.272C424.565 22.5263 423.721 21.4461 423.13 20.0316C422.544 18.6171 422.254 16.9155 422.26 14.9268C422.26 12.9441 422.552 11.2544 423.138 9.8576C423.73 8.46082 424.574 7.39844 425.669 6.67045C426.769 5.93655 428.08 5.5696 429.601 5.5696C431.123 5.5696 432.431 5.93655 433.526 6.67045C434.626 7.40436 435.473 8.4697 436.065 9.86648C436.656 11.2573 436.949 12.9441 436.943 14.9268C436.943 16.9214 436.648 18.6259 436.056 20.0405C435.47 21.455 434.629 22.5352 433.534 23.2809C432.439 24.0266 431.128 24.3995 429.601 24.3995ZM429.601 21.2124C430.643 21.2124 431.475 20.6886 432.096 19.641C432.718 18.5934 433.025 17.022 433.019 14.9268C433.019 13.5478 432.877 12.3996 432.593 11.4822C432.315 10.5649 431.919 9.87535 431.404 9.41371C430.895 8.95206 430.294 8.72124 429.601 8.72124C428.566 8.72124 427.737 9.23911 427.116 10.2749C426.494 11.3106 426.181 12.8613 426.175 14.9268C426.175 16.3236 426.314 17.4896 426.592 18.4247C426.876 19.3539 427.276 20.0523 427.79 20.5199C428.305 20.9815 428.909 21.2124 429.601 21.2124ZM447.595 5.81818V24H443.751V9.46697H443.644L439.48 12.0771V8.66797L443.981 5.81818H447.595ZM459.826 5.81818V24H455.982V9.46697H455.875L451.712 12.0771V8.66797L456.213 5.81818H459.826Z" fill="#274184"/>
<path d="M584.88 55V52.2301L591.352 46.2376C591.903 45.7049 592.364 45.2255 592.737 44.7994C593.116 44.3732 593.403 43.956 593.598 43.5476C593.794 43.1333 593.891 42.6864 593.891 42.207C593.891 41.6744 593.77 41.2157 593.527 40.831C593.285 40.4403 592.953 40.1415 592.533 39.9343C592.113 39.7212 591.636 39.6147 591.104 39.6147C590.547 39.6147 590.062 39.7272 589.648 39.9521C589.233 40.177 588.914 40.4995 588.689 40.9197C588.464 41.34 588.352 41.8401 588.352 42.4201H584.703C584.703 41.2305 584.972 40.1977 585.511 39.3217C586.049 38.4458 586.804 37.7681 587.774 37.2887C588.745 36.8093 589.864 36.5696 591.13 36.5696C592.432 36.5696 593.566 36.8004 594.531 37.2621C595.501 37.7178 596.256 38.3511 596.794 39.1619C597.333 39.9728 597.602 40.902 597.602 41.9496C597.602 42.6361 597.466 43.3138 597.194 43.9826C596.928 44.6514 596.451 45.3942 595.765 46.2109C595.078 47.0218 594.11 47.9954 592.861 49.1317L590.207 51.733V51.8572H597.842V55H584.88ZM607.756 55.3995C606.229 55.3936 604.915 55.0178 603.815 54.272C602.72 53.5263 601.876 52.4461 601.284 51.0316C600.698 49.6171 600.408 47.9155 600.414 45.9268C600.414 43.9441 600.707 42.2544 601.293 40.8576C601.885 39.4608 602.728 38.3984 603.823 37.6705C604.924 36.9366 606.235 36.5696 607.756 36.5696C609.277 36.5696 610.585 36.9366 611.68 37.6705C612.781 38.4044 613.627 39.4697 614.219 40.8665C614.811 42.2573 615.104 43.9441 615.098 45.9268C615.098 47.9214 614.802 49.6259 614.21 51.0405C613.625 52.455 612.784 53.5352 611.689 54.2809C610.594 55.0266 609.283 55.3995 607.756 55.3995ZM607.756 52.2124C608.798 52.2124 609.63 51.6886 610.251 50.641C610.872 49.5934 611.18 48.022 611.174 45.9268C611.174 44.5478 611.032 43.3996 610.748 42.4822C610.47 41.5649 610.073 40.8754 609.558 40.4137C609.049 39.9521 608.449 39.7212 607.756 39.7212C606.721 39.7212 605.892 40.2391 605.27 41.2749C604.649 42.3106 604.335 43.8613 604.329 45.9268C604.329 47.3236 604.469 48.4896 604.747 49.4247C605.031 50.3539 605.43 51.0523 605.945 51.5199C606.46 51.9815 607.064 52.2124 607.756 52.2124ZM625.749 36.8182V55H621.905V40.467H621.799L617.635 43.0771V39.668L622.136 36.8182H625.749ZM636.649 36.5696C637.584 36.5696 638.484 36.7264 639.348 37.0401C640.218 37.3538 640.993 37.8539 641.674 38.5405C642.361 39.227 642.902 40.1385 643.299 41.2749C643.701 42.4053 643.905 43.7932 643.911 45.4386C643.911 46.9833 643.737 48.3623 643.387 49.5756C643.044 50.783 642.55 51.8099 641.905 52.6562C641.26 53.5026 640.481 54.1477 639.57 54.5916C638.659 55.0296 637.641 55.2486 636.516 55.2486C635.303 55.2486 634.231 55.0148 633.302 54.5472C632.373 54.0737 631.624 53.4316 631.056 52.6207C630.494 51.804 630.154 50.8866 630.035 49.8686H633.826C633.974 50.5315 634.285 51.0464 634.758 51.4134C635.232 51.7744 635.818 51.9549 636.516 51.9549C637.7 51.9549 638.599 51.44 639.215 50.4102C639.83 49.3744 640.141 47.9569 640.147 46.1577H640.023C639.751 46.6903 639.384 47.149 638.922 47.5337C638.46 47.9125 637.931 48.2055 637.333 48.4126C636.741 48.6198 636.111 48.7234 635.442 48.7234C634.371 48.7234 633.415 48.4718 632.574 47.9688C631.734 47.4657 631.071 46.7732 630.586 45.8913C630.1 45.0095 629.858 44.0033 629.858 42.8729C629.852 41.6536 630.133 40.5676 630.701 39.6147C631.269 38.6618 632.062 37.9161 633.08 37.3775C634.104 36.833 635.294 36.5637 636.649 36.5696ZM636.676 39.5881C636.078 39.5881 635.545 39.7301 635.078 40.0142C634.616 40.2983 634.249 40.68 633.977 41.1594C633.711 41.6388 633.58 42.1745 633.586 42.7663C633.586 43.3641 633.717 43.9027 633.977 44.3821C634.243 44.8556 634.604 45.2344 635.06 45.5185C635.522 45.7966 636.048 45.9357 636.64 45.9357C637.084 45.9357 637.496 45.8529 637.874 45.6871C638.253 45.5214 638.582 45.2936 638.86 45.0036C639.144 44.7076 639.366 44.3673 639.526 43.9826C639.685 43.5979 639.765 43.1895 639.765 42.7575C639.759 42.1834 639.623 41.6566 639.357 41.1772C639.091 40.6978 638.724 40.3131 638.256 40.0231C637.789 39.7331 637.262 39.5881 636.676 39.5881Z" fill="#9A9999"/>
<path d="M763.607 55V52.2301L770.079 46.2376C770.629 45.7049 771.091 45.2255 771.464 44.7994C771.843 44.3732 772.13 43.956 772.325 43.5476C772.52 43.1333 772.618 42.6864 772.618 42.207C772.618 41.6744 772.497 41.2157 772.254 40.831C772.011 40.4403 771.68 40.1415 771.26 39.9343C770.839 39.7212 770.363 39.6147 769.83 39.6147C769.274 39.6147 768.789 39.7272 768.374 39.9521C767.96 40.177 767.64 40.4995 767.415 40.9197C767.191 41.34 767.078 41.8401 767.078 42.4201H763.429C763.429 41.2305 763.699 40.1977 764.237 39.3217C764.776 38.4458 765.53 37.7681 766.501 37.2887C767.472 36.8093 768.59 36.5696 769.857 36.5696C771.159 36.5696 772.292 36.8004 773.257 37.2621C774.228 37.7178 774.982 38.3511 775.521 39.1619C776.06 39.9728 776.329 40.902 776.329 41.9496C776.329 42.6361 776.193 43.3138 775.92 43.9826C775.654 44.6514 775.178 45.3942 774.491 46.2109C773.805 47.0218 772.837 47.9954 771.588 49.1317L768.934 51.733V51.8572H776.569V55H763.607ZM786.483 55.3995C784.956 55.3936 783.642 55.0178 782.541 54.272C781.446 53.5263 780.603 52.4461 780.011 51.0316C779.425 49.6171 779.135 47.9155 779.141 45.9268C779.141 43.9441 779.434 42.2544 780.02 40.8576C780.612 39.4608 781.455 38.3984 782.55 37.6705C783.651 36.9366 784.962 36.5696 786.483 36.5696C788.004 36.5696 789.312 36.9366 790.407 37.6705C791.508 38.4044 792.354 39.4697 792.946 40.8665C793.538 42.2573 793.831 43.9441 793.825 45.9268C793.825 47.9214 793.529 49.6259 792.937 51.0405C792.351 52.455 791.511 53.5352 790.416 54.2809C789.321 55.0266 788.01 55.3995 786.483 55.3995ZM786.483 52.2124C787.525 52.2124 788.356 51.6886 788.978 50.641C789.599 49.5934 789.907 48.022 789.901 45.9268C789.901 44.5478 789.759 43.3996 789.475 42.4822C789.197 41.5649 788.8 40.8754 788.285 40.4137C787.776 39.9521 787.175 39.7212 786.483 39.7212C785.447 39.7212 784.618 40.2391 783.997 41.2749C783.376 42.3106 783.062 43.8613 783.056 45.9268C783.056 47.3236 783.195 48.4896 783.473 49.4247C783.757 50.3539 784.157 51.0523 784.672 51.5199C785.187 51.9815 785.79 52.2124 786.483 52.2124ZM796.566 55V52.2301L803.038 46.2376C803.588 45.7049 804.05 45.2255 804.423 44.7994C804.802 44.3732 805.089 43.956 805.284 43.5476C805.479 43.1333 805.577 42.6864 805.577 42.207C805.577 41.6744 805.456 41.2157 805.213 40.831C804.97 40.4403 804.639 40.1415 804.219 39.9343C803.798 39.7212 803.322 39.6147 802.789 39.6147C802.233 39.6147 801.748 39.7272 801.333 39.9521C800.919 40.177 800.599 40.4995 800.374 40.9197C800.15 41.34 800.037 41.8401 800.037 42.4201H796.388C796.388 41.2305 796.658 40.1977 797.196 39.3217C797.735 38.4458 798.489 37.7681 799.46 37.2887C800.431 36.8093 801.549 36.5696 802.816 36.5696C804.118 36.5696 805.251 36.8004 806.216 37.2621C807.187 37.7178 807.941 38.3511 808.48 39.1619C809.019 39.9728 809.288 40.902 809.288 41.9496C809.288 42.6361 809.152 43.3138 808.879 43.9826C808.613 44.6514 808.137 45.3942 807.45 46.2109C806.764 47.0218 805.796 47.9954 804.547 49.1317L801.893 51.733V51.8572H809.527V55H796.566ZM818.954 55.2486C817.699 55.2486 816.58 55.0178 815.598 54.5561C814.621 54.0945 813.846 53.4582 813.272 52.6474C812.698 51.8365 812.399 50.9073 812.375 49.8597H816.104C816.145 50.564 816.441 51.1352 816.992 51.5732C817.542 52.0111 818.196 52.2301 818.954 52.2301C819.557 52.2301 820.09 52.0969 820.552 51.8306C821.019 51.5584 821.383 51.1825 821.644 50.7031C821.91 50.2178 822.043 49.6615 822.043 49.0341C822.043 48.3949 821.907 47.8326 821.635 47.3473C821.368 46.862 820.998 46.4832 820.525 46.2109C820.051 45.9387 819.51 45.7996 818.9 45.7937C818.368 45.7937 817.85 45.9032 817.347 46.1222C816.85 46.3411 816.462 46.64 816.184 47.0188L812.766 46.4062L813.627 36.8182H824.742V39.9609H816.796L816.326 44.5153H816.432C816.752 44.0655 817.234 43.6926 817.879 43.3967C818.524 43.1007 819.247 42.9528 820.046 42.9528C821.14 42.9528 822.117 43.2102 822.975 43.7251C823.833 44.2401 824.511 44.9473 825.008 45.8469C825.505 46.7406 825.751 47.7705 825.745 48.9364C825.751 50.1616 825.467 51.2506 824.893 52.2035C824.325 53.1504 823.529 53.8962 822.505 54.4407C821.487 54.9793 820.303 55.2486 818.954 55.2486Z" fill="#9A9999"/>
<path d="M73.7539 68.6818C75.2267 68.6818 76.4206 67.4879 76.4206 66.0151C76.4206 64.5424 75.2267 63.3485 73.7539 63.3485C72.2811 63.3485 71.0872 64.5424 71.0872 66.0151C71.0872 67.4879 72.2811 68.6818 73.7539 68.6818ZM74.2539 177.765L74.2539 66.0151L73.2539 66.0151L73.2539 177.765L74.2539 177.765Z" fill="#9A9999"/>
<path d="M254.045 68.6818C255.518 68.6818 256.712 67.4879 256.712 66.0151C256.712 64.5424 255.518 63.3485 254.045 63.3485C252.572 63.3485 251.378 64.5424 251.378 66.0151C251.378 67.4879 252.572 68.6818 254.045 68.6818ZM254.545 177.765L254.545 66.0151L253.545 66.0151L253.545 177.765L254.545 177.765Z" fill="#9A9999"/>
<path d="M434.336 112.432C435.809 112.432 437.003 111.238 437.003 109.765C437.003 108.292 435.809 107.098 434.336 107.098C432.863 107.098 431.669 108.292 431.669 109.765C431.669 111.238 432.863 112.432 434.336 112.432ZM434.836 177.765L434.836 109.765L433.836 109.765L433.836 177.765L434.836 177.765Z" fill="#9A9999"/>
<path d="M614.625 68.6818C616.098 68.6818 617.292 67.4879 617.292 66.0151C617.292 64.5424 616.098 63.3485 614.625 63.3485C613.152 63.3485 611.958 64.5424 611.958 66.0151C611.958 67.4879 613.152 68.6818 614.625 68.6818ZM615.125 177.765L615.125 66.0151L614.125 66.0151L614.125 177.765L615.125 177.765Z" fill="#9A9999"/>
<path d="M794.914 68.6818C796.387 68.6818 797.581 67.4879 797.581 66.0151C797.581 64.5424 796.387 63.3485 794.914 63.3485C793.441 63.3485 792.247 64.5424 792.247 66.0151C792.247 67.4879 793.441 68.6818 794.914 68.6818ZM795.414 177.765L795.414 66.0151L794.414 66.0151L794.414 177.765L795.414 177.765Z" fill="#9A9999"/>
<path d="M163.9 286.848C162.428 286.848 161.234 288.042 161.234 289.515C161.234 290.988 162.428 292.182 163.9 292.182C165.373 292.182 166.567 290.988 166.567 289.515C166.567 288.042 165.373 286.848 163.9 286.848ZM163.4 177.765L163.4 289.515L164.4 289.515L164.4 177.765L163.4 177.765Z" fill="#9A9999"/>
<path d="M344.191 286.848C342.719 286.848 341.525 288.042 341.525 289.515C341.525 290.988 342.719 292.182 344.191 292.182C345.664 292.182 346.858 290.988 346.858 289.515C346.858 288.042 345.664 286.848 344.191 286.848ZM343.691 177.765L343.691 289.515L344.691 289.515L344.691 177.765L343.691 177.765Z" fill="#9A9999"/>
<path d="M524.48 286.848C523.008 286.848 521.814 288.042 521.814 289.515C521.814 290.988 523.008 292.182 524.48 292.182C525.953 292.182 527.147 290.988 527.147 289.515C527.147 288.042 525.953 286.848 524.48 286.848ZM523.98 177.765L523.98 289.515L524.98 289.515L524.98 177.765L523.98 177.765Z" fill="#9A9999"/>
<path d="M704.77 286.848C703.297 286.848 702.103 288.042 702.103 289.515C702.103 290.988 703.297 292.182 704.77 292.182C706.242 292.182 707.436 290.988 707.436 289.515C707.436 288.042 706.242 286.848 704.77 286.848ZM704.27 177.765L704.27 289.515L705.27 289.515L705.27 177.765L704.27 177.765Z" fill="#9A9999"/>
<line y1="177.265" x2="894" y2="177.265" stroke="#9A9999"/>
<circle cx="73.7547" cy="177.765" r="6.95" fill="#9A9999" stroke="#9A9999"/>
<circle cx="163.899" cy="177.765" r="6.95" fill="#9A9999" stroke="#9A9999"/>
<circle cx="254.044" cy="177.765" r="6.95" fill="#9A9999" stroke="#9A9999"/>
<circle cx="344.19" cy="177.765" r="6.95" fill="#9A9999" stroke="#9A9999"/>
<circle cx="434.335" cy="177.765" r="6.95" fill="#9A9999" stroke="#9A9999"/>
<circle cx="524.481" cy="177.765" r="6.95" fill="#9A9999" stroke="#9A9999"/>
<circle cx="614.626" cy="177.765" r="6.95" fill="#9A9999" stroke="#9A9999"/>
<circle cx="704.77" cy="177.765" r="6.95" fill="#9A9999" stroke="#9A9999"/>
<circle cx="794.915" cy="177.765" r="6.95" fill="#9A9999" stroke="#9A9999"/>
</svg>
