<svg width="20" height="20" viewBox="0 0 20 20" fill="none" xmlns="http://www.w3.org/2000/svg">
<path d="M14.1912 18.2844H10.0198V15.6526C10.0198 15.6391 9.93599 15.4365 9.9188 15.4032C9.78234 15.1406 9.51255 14.9953 9.22245 14.9688C8.82974 14.9328 7.72557 14.9183 7.35891 14.9797C7.17036 15.0115 6.95318 15.1703 6.84536 15.324C6.82297 15.3558 6.7063 15.5604 6.7063 15.575V18.2844H1.9688C1.90161 18.2844 1.74172 18.1021 1.72401 18.0229C1.59849 17.474 2.12297 17.4193 2.53443 17.4657V4.737C2.53443 4.60471 2.80943 4.26825 2.92609 4.19325C6.35682 3.31461 9.83651 2.58232 13.287 1.76357C13.6146 1.75784 13.9412 1.92919 14.0902 2.22659C14.1094 2.26461 14.1912 2.49482 14.1912 2.51513V18.2849V18.2844ZM5.15839 8.21409C5.30005 8.33961 6.08078 8.32607 6.29849 8.30628C6.54276 8.28388 6.66932 8.13596 6.70266 7.89169C6.74172 7.60471 6.77662 6.78857 6.43547 6.6844C6.29797 6.64221 5.57089 6.6469 5.39953 6.66617C5.21203 6.687 5.06359 6.80992 5.03182 7.00055C5.00682 7.15211 5.00943 7.90003 5.04797 8.03336C5.05578 8.06096 5.13755 8.19586 5.15891 8.21461L5.15839 8.21409ZM7.65318 8.21409C7.79484 8.33961 8.57557 8.32607 8.79328 8.30628C9.03755 8.28388 9.16411 8.13596 9.19745 7.89169C9.23651 7.60471 9.27141 6.78857 8.93026 6.6844C8.79276 6.64221 8.06568 6.6469 7.89432 6.66617C7.70682 6.687 7.55839 6.80992 7.52661 7.00055C7.50161 7.15211 7.50422 7.90003 7.54276 8.03336C7.55057 8.06096 7.63234 8.19586 7.6537 8.21461L7.65318 8.21409ZM10.1485 8.21409C10.2902 8.33961 11.0709 8.32607 11.2886 8.30628C11.5329 8.28388 11.6594 8.13596 11.6928 7.89169C11.7318 7.60471 11.7667 6.78857 11.4256 6.6844C11.2881 6.64221 10.561 6.6469 10.3896 6.66617C10.2021 6.687 10.0537 6.80992 10.0219 7.00055C9.99693 7.15211 9.99953 7.90003 10.0381 8.03336C10.0459 8.06096 10.1277 8.19586 10.149 8.21461L10.1485 8.21409ZM5.15839 10.7089C5.30005 10.8344 6.08078 10.8209 6.29849 10.8011C6.54276 10.7787 6.66932 10.6308 6.70266 10.3865C6.74172 10.0995 6.77662 9.28336 6.43547 9.17919C6.29797 9.137 5.57089 9.14169 5.39953 9.16096C5.23807 9.17919 5.0938 9.27398 5.04797 9.43336C5.00995 9.56669 5.00682 10.3146 5.03182 10.4662C5.04172 10.5245 5.11776 10.6729 5.15891 10.7094L5.15839 10.7089ZM7.65318 10.7089C7.79484 10.8344 8.57557 10.8209 8.79328 10.8011C9.03755 10.7787 9.16411 10.6308 9.19745 10.3865C9.23651 10.0995 9.27141 9.28336 8.93026 9.17919C8.79276 9.137 8.06568 9.14169 7.89432 9.16096C7.73287 9.17919 7.58859 9.27398 7.54276 9.43336C7.50474 9.56669 7.50161 10.3146 7.52661 10.4662C7.53651 10.5245 7.61255 10.6729 7.6537 10.7094L7.65318 10.7089ZM10.1485 10.7089C10.2902 10.8344 11.0709 10.8209 11.2886 10.8011C11.5329 10.7787 11.6594 10.6308 11.6928 10.3865C11.7318 10.0995 11.7667 9.28336 11.4256 9.17919C11.2881 9.137 10.561 9.14169 10.3896 9.16096C10.2282 9.17919 10.0839 9.27398 10.0381 9.43336C10.0001 9.56669 9.99693 10.3146 10.0219 10.4662C10.0318 10.5245 10.1079 10.6729 10.149 10.7094L10.1485 10.7089ZM5.15839 13.2042C5.30005 13.3297 6.08078 13.3162 6.29849 13.2964C6.54276 13.274 6.66932 13.1261 6.70266 12.8818C6.74172 12.5948 6.77662 11.7787 6.43547 11.6745C6.29797 11.6323 5.57089 11.637 5.39953 11.6563C5.21203 11.6771 5.06359 11.8 5.03182 11.9907C5.00682 12.1422 5.00943 12.8901 5.04797 13.0235C5.05578 13.0511 5.13755 13.186 5.15891 13.2047L5.15839 13.2042ZM7.65318 13.2042C7.79484 13.3297 8.57557 13.3162 8.79328 13.2964C9.03755 13.274 9.16411 13.1261 9.19745 12.8818C9.23651 12.5948 9.27141 11.7787 8.93026 11.6745C8.79276 11.6323 8.06568 11.637 7.89432 11.6563C7.70682 11.6771 7.55839 11.8 7.52661 11.9907C7.50161 12.1422 7.50422 12.8901 7.54276 13.0235C7.55057 13.0511 7.63234 13.186 7.6537 13.2047L7.65318 13.2042ZM10.1485 13.2042C10.2902 13.3297 11.0709 13.3162 11.2886 13.2964C11.5329 13.274 11.6594 13.1261 11.6928 12.8818C11.7318 12.5948 11.7667 11.7787 11.4256 11.6745C11.2881 11.6323 10.561 11.637 10.3896 11.6563C10.2021 11.6771 10.0537 11.8 10.0219 11.9907C9.99693 12.1422 9.99953 12.8901 10.0381 13.0235C10.0459 13.0511 10.1277 13.186 10.149 13.2047L10.1485 13.2042Z" fill="white"/>
<path d="M17.5046 17.4662C17.916 17.4204 18.4421 17.4688 18.315 18.0235C18.2967 18.1027 18.1368 18.285 18.0702 18.285H15.0098V4.75635L17.1118 5.79281C17.2509 5.83291 17.5051 6.22197 17.5051 6.33551V17.4662H17.5046Z" fill="white"/>
<path d="M9.20195 15.7896H7.52539V18.2849H9.20195V15.7896Z" fill="white"/>
</svg>
