<svg width="65" height="65" viewBox="0 0 65 65" fill="none" xmlns="http://www.w3.org/2000/svg">
<path d="M36.5363 15.9216C35.7509 15.1886 35.6037 13.7414 36.2384 12.8612L47.7065 2.28174C48.8508 1.4557 50.1085 1.46586 51.2544 2.28174C54.5146 5.52159 58.1861 8.37211 61.4564 11.5933C62.4246 12.5463 63.3336 13.1997 63.0712 14.7333C62.5787 17.6024 57.9593 16.25 56.0736 16.6037C55.8654 16.6427 55.7215 16.7358 55.6521 16.9423L55.6318 46.5715C55.5641 47.7225 54.6737 48.5621 53.5413 48.662C51.5287 48.8397 47.0176 48.8786 45.0473 48.6569C44.008 48.5401 43.1159 47.6328 43.0787 46.5715L43.055 17.0726C43.0177 16.9592 42.9805 16.8069 42.8958 16.7239C42.3271 16.1603 38.0056 17.291 36.538 15.9233L36.5363 15.9216Z" fill="#274184"/>
<path d="M23.6118 27.1595C24.0147 26.7261 24.8204 26.4164 25.4061 26.3571C27.2512 26.1726 31.1495 26.1845 33.0047 26.3571C34.1557 26.4655 35.0309 26.9936 35.4422 28.1006C35.823 38.3601 35.493 48.6975 35.6098 58.9858C35.5505 60.0589 35.0072 61.1423 33.9357 61.4927C32.7 61.8972 27.1716 61.8278 25.6753 61.689C24.3059 61.5604 23.4053 61.0526 22.9906 59.6849L22.9297 28.82C22.9618 28.2953 23.2598 27.5386 23.6118 27.1578V27.1595Z" fill="#274184"/>
<path d="M6.81211 37.6644C8.35925 37.4376 13.5643 37.4376 15.1301 37.6424C16.4487 37.8151 17.2917 38.9323 17.3628 40.2255C16.9379 46.2989 17.9163 53.1222 17.356 59.1077C17.185 60.9256 16.1102 61.5875 14.3853 61.7127C12.525 61.8481 9.12773 61.882 7.29961 61.6924C6.0944 61.5672 5.21758 61.0424 4.80794 59.8761L4.68945 39.9784C4.79102 38.7985 5.6306 37.8405 6.81211 37.6661V37.6644Z" fill="#274184"/>
<path d="M43.8063 52.2337C47.229 52.4605 51.3118 51.819 54.6583 52.2168C56.7657 52.4673 57.0788 55.1469 55.0442 55.7427H43.6574C41.7344 55.24 41.8986 52.6264 43.8063 52.2337Z" fill="#274184"/>
<path d="M43.5525 57.9329L55.046 57.9126C57.2804 58.8097 56.7201 61.2218 54.2911 61.4504C51.862 61.6789 46.7534 61.6789 44.3007 61.4351C42.0105 61.2083 41.4942 58.8639 43.5525 57.9329Z" fill="#274184"/>
</svg>
