<svg width="25" height="25" viewBox="0 0 25 25" fill="none" xmlns="http://www.w3.org/2000/svg">
<path d="M15.1634 16.1956L14.6889 16.6951C14.6889 16.6951 13.5612 17.8824 10.483 14.6416C7.40494 11.4009 8.53263 10.2137 8.53263 10.2137L8.8314 9.89915C9.56739 9.12429 9.63677 7.88026 8.99465 6.97206L7.68113 5.11426C6.88636 3.99019 5.35061 3.8417 4.43966 4.80075L2.80466 6.5221C2.35297 6.99764 2.05028 7.61409 2.08699 8.29794C2.1809 10.0474 2.92847 13.8115 7.09998 18.2034C11.5237 22.8607 15.6744 23.0458 17.3718 22.8783C17.9087 22.8253 18.3755 22.5358 18.7518 22.1397L20.2316 20.5817C21.2304 19.5302 20.9488 17.7274 19.6708 16.9917L17.6806 15.8462C16.8415 15.3632 15.8192 15.5051 15.1634 16.1956Z" fill="#F9A61C"/>
<path d="M17.7083 12.4999C20.5848 12.4999 22.9167 10.1681 22.9167 7.29158C22.9167 4.41511 20.5848 2.08325 17.7083 2.08325C14.8319 2.08325 12.5 4.41511 12.5 7.29158C12.5 8.12475 12.6956 8.91223 13.0434 9.61059C13.1359 9.79617 13.1667 10.0083 13.1131 10.2086L12.8029 11.3679C12.6682 11.8713 13.1286 12.3317 13.632 12.197L14.7914 11.8868C14.9917 11.8333 15.2037 11.864 15.3894 11.9565C16.0877 12.3043 16.8752 12.4999 17.7083 12.4999Z" fill="#F9A61C"/>
</svg>
