<svg width="20" height="20" viewBox="0 0 20 20" fill="none" xmlns="http://www.w3.org/2000/svg">
<path d="M6.20942 1.64062C6.66645 1.72331 7.09288 2.00781 7.27713 2.44661C7.44705 2.85156 7.37674 3.34635 7.41515 3.77539C7.46528 4.33724 7.58377 4.88802 7.71072 5.43555C7.85851 6.07422 8.11176 6.43294 7.72179 7.08138L6.18273 9.12891C6.1671 9.20573 6.46658 9.70378 6.52973 9.81055C7.43208 11.3366 8.62088 12.5228 10.1411 13.4323C10.2439 13.4941 10.7231 13.7826 10.7941 13.793C10.8207 13.7969 10.8429 13.7995 10.8657 13.7819L12.8435 12.2715C13.6157 11.7858 14.6918 12.3672 15.5454 12.4902C16.1241 12.5736 17.0428 12.5111 17.5343 12.7168C17.9842 12.9049 18.2596 13.3438 18.3227 13.8184C18.2622 14.8685 18.4184 16.0371 18.326 17.0729C18.1925 18.5788 16.5629 18.3678 15.477 18.263C8.55057 17.5931 2.83702 12.1517 1.81749 5.27148L1.65018 3.63021C1.67231 3.37174 1.62023 3.06771 1.65018 2.81576C1.71788 2.24935 2.2563 1.71029 2.8227 1.64258H6.21007L6.20942 1.64062Z" fill="white"/>
<path d="M2.82292 1.64062C2.25651 1.70833 1.7181 2.2474 1.65039 2.8138V1.64062H2.82292Z" fill="white"/>
</svg>
