<svg width="65" height="65" viewBox="0 0 65 65" fill="none" xmlns="http://www.w3.org/2000/svg">
<g clip-path="url(#clip0_539_4947)">
<path d="M49.5421 65H15.4584C4.86412 63.54 4.54039 54.5057 6.12255 45.8444C7.41747 38.7556 11.2689 31.3035 19.5701 31.4193C21.2522 31.4431 23.9325 33.7806 25.5099 34.6122C30.1484 37.0576 35.2472 36.9513 39.8238 34.4392C41.3711 33.5902 43.8102 31.4193 45.5447 31.4193C57.0577 31.4193 60.222 45.9554 59.5492 55.0532C59.1461 60.5043 54.9566 64.5414 49.5405 65.0016L49.5421 65Z" fill="white"/>
<path d="M32.1007 31.3875C40.7362 31.3875 47.7366 24.387 47.7366 15.7516C47.7366 7.11614 40.7362 0.115723 32.1007 0.115723C23.4653 0.115723 16.4648 7.11614 16.4648 15.7516C16.4648 24.387 23.4653 31.3875 32.1007 31.3875Z" fill="white"/>
</g>
<defs>
<clipPath id="clip0_539_4947">
<rect width="65" height="65" fill="white"/>
</clipPath>
</defs>
</svg>
