<svg width="65" height="65" viewBox="0 0 65 65" fill="none" xmlns="http://www.w3.org/2000/svg">
<g clip-path="url(#clip0_539_4940)">
<path d="M65.0007 35.7293V46.882C63.0236 47.8249 60.935 48.5042 58.7957 48.9706C56.4131 49.4877 54.0001 49.7107 51.5769 49.9237C51.5972 47.9669 51.6073 46.0202 51.2626 44.0938C50.3298 38.9129 46.2946 34.5532 41.3164 33.0121C42.7764 31.2581 44.1046 29.2911 44.5507 26.9998C44.6217 26.6449 44.7535 24.9619 44.8549 24.901C48.8901 25.0328 53.4526 24.2015 57.2749 25.6716C60.641 26.9592 63.267 29.8386 64.4126 33.2351L65.0108 35.7394L65.0007 35.7293Z" fill="#283678"/>
<path d="M45.6949 38.1827C50.7035 43.1913 48.9901 49.9235 49.2942 56.3312C49.3044 56.4934 49.2638 56.5847 49.1624 56.7063C49.0205 56.8686 47.4084 57.5276 47.0738 57.6594C45.8065 58.1359 44.2654 58.5516 42.927 58.8355C34.2989 60.6909 25.1841 59.4945 16.8601 56.8787L16.8398 45.797C17.6205 39.1763 22.4669 34.9282 29.0673 34.5834C34.674 34.2894 41.467 33.9548 45.6949 38.1827Z" fill="#283678"/>
<path d="M21.2922 24.8299C21.3429 27.4051 22.3466 29.9905 23.9587 31.9879C24.1108 32.1704 24.9928 32.9004 24.8408 33.0727C19.7105 34.4111 15.5739 39.227 14.7323 44.4485C14.4485 46.2127 14.6208 48.0174 14.5701 49.8018C9.66293 49.5382 4.83685 48.5142 0.183133 47.0238L0.142578 35.942C0.639381 31.3897 3.54922 27.3139 7.85822 25.6613C12.1672 24.0086 16.9527 25.1442 21.2922 24.84V24.8299Z" fill="#283678"/>
<path d="M33.0415 33.9853C38.2938 33.9853 42.5517 29.7274 42.5517 24.4751C42.5517 19.2227 38.2938 14.9648 33.0415 14.9648C27.7891 14.9648 23.5312 19.2227 23.5312 24.4751C23.5312 29.7274 27.7891 33.9853 33.0415 33.9853Z" fill="#283678"/>
<path d="M15.0567 5.23153C20.3795 4.68403 25.4185 8.27317 25.8342 13.7684C25.9863 15.7353 25.4996 15.2791 24.3945 16.4755C23.4719 17.4691 22.4479 19.1319 21.9916 20.4093C21.799 20.9467 21.5962 22.3357 21.3427 22.6804C21.1704 22.9136 20.3593 23.2888 20.0551 23.4206C12.674 26.5028 5.09019 19.7706 7.18893 12.0752C8.13184 8.59761 11.427 5.60666 15.0567 5.24166V5.23153Z" fill="#283678"/>
<path d="M44.7531 23.289C44.4084 19.6593 42.2894 16.4858 39.3086 14.4885C39.3897 4.98841 52.2255 1.57162 57.0008 9.8449C61.6951 17.9762 53.1785 27.1012 44.7531 23.289Z" fill="#283678"/>
</g>
<defs>
<clipPath id="clip0_539_4940">
<rect width="65" height="65" fill="white"/>
</clipPath>
</defs>
</svg>
