<svg width="120" height="120" viewBox="0 0 120 120" fill="none" xmlns="http://www.w3.org/2000/svg">
<g clip-path="url(#clip0_539_4670)">
<path d="M0 108.075C0.25 107.8 0.95 106.9 1.275 106.9H5.6V63.2751C5.6 63.0001 6.6 62.0001 6.875 62.0001H11.2V42.7001C11.2 42.2001 12.2 41.5001 12.725 41.4251C14.275 41.1751 18.775 41.2501 20.45 41.4001C21.125 41.4501 22.425 41.9251 22.425 42.7001V62.0001H28.05V42.7001C28.05 42.2001 29.05 41.5001 29.575 41.4251C31.125 41.1751 35.625 41.2501 37.3 41.4001C37.975 41.4501 39.275 41.9251 39.275 42.7001V75.1001H67.925C68.2 75.1001 69.2 76.1001 69.2 76.3751V106.9H76.675V100.7C76.675 100.425 77.675 99.4251 77.95 99.4251H84.15V33.9251H59.825V40.0001C63.975 41.3001 64.9 46.7501 61.475 49.4751L72.75 59.2501C73.1 60.1001 73.05 66.2501 72.95 67.5001C72.85 68.7501 72.45 69.3251 71.2 69.4751C62.75 68.9001 53.3 70.2251 44.975 69.4751C44.075 69.4001 43.275 69.1251 43.05 68.1251C42.85 67.2501 42.875 60.1751 43.1 59.4001L54.45 49.4751C51.025 46.7501 51.95 41.3001 56.1 40.0001V33.9251H14.375C13.475 33.9251 12.575 31.8001 13.35 31.0251L23.6 19.0751L87.85 5.90006C91.775 6.00006 95.875 5.55006 99.725 6.15006C105.625 10.5251 112.425 14.3001 118.2 18.8001C118.85 19.3001 119.575 19.6251 119.75 20.5251C119.35 26.6251 120.325 33.4751 119.775 39.4751C119.675 40.6751 119.275 41.3001 118.025 41.4501C116 41.7001 110.45 41.6751 108.425 41.4501C107.825 41.3751 106.675 40.7751 106.675 40.1501V31.8501L101.05 33.4751V99.4501H105.375C105.65 99.4501 106.65 100.45 106.65 100.725V106.925H118.475C119.25 106.925 119.7 108.225 119.775 108.9C119.95 110.925 120.05 116.6 119.75 118.5C119.625 119.3 119.15 119.575 118.6 120.025H0V108.1V108.075ZM97.3 9.60006H88.875L83.725 18.9501H97.3V9.60006ZM43.275 18.9501H79.525L84.2 10.6501L83.85 10.5251L43.275 18.9501ZM111.825 18.9501L101.075 11.4751V18.9501H111.825ZM38.825 22.7001H28.3L33.8 29.0251L38.825 22.7001ZM57.55 22.7001H47.025L52.525 29.0251L57.55 22.7001ZM76.25 22.7001H65.725L71.225 29.0251L76.25 22.7001ZM97.3 22.7001H82.325V30.1751H97.3V22.7001ZM116.025 22.7001H101.05V29.4751L115.875 25.0501L116.025 22.6751V22.7001ZM29.475 30.1751L24.45 23.8501L18.95 30.1751H29.475ZM48.175 30.1751L43.15 23.8501L37.65 30.1751H48.175ZM66.9 30.1751L61.875 23.8501L56.375 30.1751H66.9ZM78.6 30.1751V26.2001C77.225 27.3001 76.275 28.8751 75.1 30.1751H78.6ZM116.025 29.0001L110.4 30.6251V37.6501H116.025V29.0001ZM94.025 33.9251H87.95V39.0751L94.025 33.9251ZM97.3 48.9001V36.2751L89.125 43.1751L97.3 48.9001ZM59.925 45.1501C59.925 44.1001 59.075 43.2501 58.025 43.2501C56.975 43.2501 56.125 44.1001 56.125 45.1501C56.125 46.2001 56.975 47.0501 58.025 47.0501C59.075 47.0501 59.925 46.2001 59.925 45.1501ZM18.725 45.1501H14.975V62.0001H18.725V45.1501ZM35.55 45.1501H31.8V63.5251L35.55 69.7251V45.1751V45.1501ZM87.95 47.0251V58.2501L95.9 52.5251L87.95 47.0251ZM65.975 58.2501L57.95 51.4751L50.075 58.2501H65.975ZM97.3 67.6001V56.3751L89.35 61.8751L97.3 67.6001ZM69.25 62.0001H46.8V65.7501H69.25V62.0001ZM29 65.7251H9.35V106.9H24.325V93.2251C24.325 92.7751 25.5 91.8001 26.075 91.9251C33.325 92.4251 41.425 91.2751 48.55 91.9251C49.225 91.9751 50.525 92.4501 50.525 93.2251V106.9H65.5V78.8251H36.85C36.6 78.8251 36.025 78.2001 35.825 77.9751C33.725 75.3001 31.2 69.8501 29.35 66.6751C29.175 66.3751 29.05 66.0751 29 65.7251ZM87.95 65.7251V76.9501L95.9 71.2251L87.95 65.7251ZM97.3 86.3251V75.1001L89.6 80.8001L97.3 86.3251ZM87.95 97.0751L96.125 90.1751L87.95 84.4501V97.0751ZM97.3 99.4251V94.2751L91.225 99.4251H97.3ZM28.075 95.6751V106.9H46.8V95.6751H28.075ZM80.475 103.15V106.9H102.925V103.15H80.475ZM116.025 110.65H3.75V116.275H116.025V110.65Z" fill="#283678"/>
<path d="M16.299 82.625H32.149C34.224 82.925 34.224 85.975 32.149 86.3C27.574 87.025 21.274 85.8 16.499 86.3C14.524 86 14.399 83.175 16.299 82.625Z" fill="#283678"/>
<path d="M42.5002 82.625H58.3502C60.4252 82.925 60.4252 85.975 58.3502 86.3C53.7752 87.025 47.4752 85.8 42.7002 86.3C40.7252 86 40.6002 83.175 42.5002 82.625Z" fill="#283678"/>
<path d="M16.2992 73.275C17.2242 73.075 23.9242 73.075 24.8492 73.275C26.6992 73.675 26.6742 76.65 24.6492 76.95C23.4742 77.125 17.3492 77.15 16.2992 76.925C14.4992 76.525 14.4992 73.675 16.2992 73.275Z" fill="#283678"/>
</g>
<defs>
<clipPath id="clip0_539_4670">
<rect width="120" height="120" fill="white"/>
</clipPath>
</defs>
</svg>
