<svg width="32" height="32" viewBox="0 0 32 32" fill="none" xmlns="http://www.w3.org/2000/svg">
<path d="M16 0C7.19999 0 0 7.21284 0 16.0964C0 24.1285 5.85599 30.7952 13.504 32V20.755H9.43999V16.0964H13.504V12.5462C13.504 8.51405 15.888 6.29718 19.552 6.29718C21.296 6.29718 23.12 6.6024 23.12 6.6024V10.5703H21.104C19.12 10.5703 18.496 11.8072 18.496 13.0763V16.0964H22.944L22.224 20.755H18.496V32C22.2662 31.4021 25.6995 29.4707 28.1758 26.5542C30.6521 23.6379 32.0086 19.9287 32 16.0964C32 7.21284 24.8 0 16 0Z" fill="#283678"/>
</svg>
