<svg width="20" height="20" viewBox="0 0 20 20" fill="none" xmlns="http://www.w3.org/2000/svg">
<path d="M1.70703 4.29297H7.20312V9.14258L12.0942 6.29053C12.2461 6.21875 12.4795 6.29248 12.5918 6.40576C12.6128 6.42725 12.7319 6.62402 12.7319 6.63721V9.14307L17.623 6.29102C17.8892 6.19092 18.1577 6.37256 18.2456 6.62061L18.2622 17.7939C18.2358 18.064 18.0635 18.2363 17.7935 18.2627H2.17432C1.92529 18.2383 1.81836 18.1147 1.70703 17.9053V4.29297ZM6.58008 12.4478C6.37891 12.5161 6.25732 12.6621 6.23291 12.877C6.18408 13.3115 6.18408 14.4468 6.23291 14.8818C6.25781 15.103 6.40918 15.2915 6.63623 15.3188C7.28174 15.3965 8.07715 15.2588 8.73926 15.3188C8.99219 15.2744 9.12207 15.0986 9.14404 14.8506C9.18555 14.3818 9.19434 13.3364 9.14307 12.877C9.11816 12.6558 8.9668 12.4673 8.73975 12.4399C8.08057 12.3608 7.25684 12.4946 6.58008 12.4482V12.4478ZM12.1089 12.4478C11.9077 12.5161 11.7861 12.6621 11.7617 12.877C11.7129 13.3115 11.7129 14.4468 11.7617 14.8818C11.7866 15.103 11.938 15.2915 12.165 15.3188C12.8105 15.3965 13.606 15.2588 14.2681 15.3188C14.521 15.2744 14.6509 15.0986 14.6728 14.8506C14.7144 14.3818 14.7231 13.3364 14.6719 12.877C14.647 12.6558 14.4956 12.4673 14.2686 12.4399C13.6094 12.3608 12.7856 12.4946 12.1089 12.4482V12.4478Z" fill="white"/>
<path d="M6.84766 1.70654C6.9082 1.77734 7.01025 1.78174 7.07471 1.85107C7.09326 1.87109 7.20312 2.06494 7.20312 2.07813V3.32275H1.70703V2.06201C1.80322 1.87695 1.87793 1.80273 2.0625 1.70654H6.84766Z" fill="white"/>
</svg>
