<svg width="65" height="65" viewBox="0 0 65 65" fill="none" xmlns="http://www.w3.org/2000/svg">
<g clip-path="url(#clip0_539_4950)">
<path d="M25.7852 31.3759C24.2177 33.0077 22.029 34.3585 21.7006 36.7909C21.2385 40.2 21.9799 44.4284 21.66 47.9255C21.6973 49.0004 22.4133 49.0935 23.3257 49.0461C26.9904 48.8599 30.997 46.4021 31.5996 42.5681C31.669 42.1314 31.5895 41.7082 31.647 41.2867C31.8552 39.7853 32.8962 38.8391 33.9592 37.8861L45.5187 49.449C46.5885 50.1379 48.8263 51.6275 49.0345 52.9749C49.3155 54.7844 47.6177 55.9574 45.9859 55.2279C45.2462 54.8961 41.9014 51.2974 41.0669 50.446C40.4982 49.8671 39.0171 47.8477 38.2333 47.89C37.5461 47.9272 36.8893 48.843 37.4225 49.4388C39.0831 51.6072 41.7576 53.4759 43.3978 55.5563C44.9771 57.5604 43.4892 59.9014 41.0703 59.0805L33.7561 51.7748C32.6812 50.9132 31.5133 52.0016 32.2395 53.1594C33.7053 54.7438 35.3574 56.1639 36.8216 57.7466C37.2008 58.1563 38.4432 59.4309 38.6125 59.8083C39.5824 61.9716 37.2296 63.5272 35.3625 62.3948L27.7216 54.6202C26.7906 54.1801 26.0103 54.6845 26.2117 55.7272L32.5915 62.5082C33.4345 64.0774 31.5234 65.6042 30.1693 64.399C25.6125 60.1334 21.5178 54.9841 16.8849 50.8387C15.507 49.6064 13.9701 48.5315 12.3535 47.6395L18.0952 30.99C20.641 31.469 23.2004 31.6891 25.7868 31.3742L25.7852 31.3759Z" fill="#283678"/>
<path d="M23.6582 46.9236V36.8892C23.6582 36.7013 24.2202 35.706 24.3861 35.491C26.3852 33.7086 28.2708 31.5657 30.3021 29.8442C35.8135 25.1706 40.5396 30.005 46.5589 30.203L52.7474 47.3908C51.1596 48.3742 49.2333 49.4119 47.4069 48.359C42.9855 44.3541 38.8993 39.9361 34.6303 35.7534C33.6723 35.1999 31.9355 36.9045 31.2991 37.6188C29.7723 39.3335 29.9703 40.146 29.625 42.1908C29.1392 45.0802 26.4055 46.712 23.6582 46.9219V46.9236Z" fill="#283678"/>
<path d="M0.800781 49.5811V24.8624C5.20521 23.9552 9.65534 24.226 13.9565 25.46C14.6624 25.6631 16.3602 26.1455 16.9154 26.4891C17.066 26.5822 17.1947 26.6127 17.2573 26.8158L9.37266 49.5811H0.800781Z" fill="#283678"/>
<path d="M64.3257 24.8626V49.5812H55.7538L47.8691 26.816C47.925 26.6331 48.052 26.5671 48.2077 26.4859C48.9169 26.1169 50.3591 25.6937 51.1682 25.4601C55.4626 24.2193 59.9297 23.9604 64.324 24.8609L64.3257 24.8626Z" fill="#283678"/>
<path d="M41.2016 24.9961H23.9258V19.6133C23.9258 19.3645 24.3083 18.2981 24.4336 17.9951C25.043 16.5241 26.2719 15.1073 27.6921 14.3862C29.9874 16.1331 32.5061 16.712 35.2568 15.6608C36.115 15.3341 36.726 14.7789 37.525 14.3896C38.8978 15.2123 40.0776 16.5004 40.6954 17.9934C40.8207 18.2964 41.2033 19.3628 41.2033 19.6116V24.9944L41.2016 24.9961Z" fill="#283678"/>
<path d="M55.6866 21.1419H43.1944C43.4466 17.9325 41.7979 15.2648 39.4941 13.215C39.9901 12.0368 41.0802 11.2277 42.1246 10.5659C45.1156 12.9357 48.997 12.9627 51.9728 10.5608C53.3879 11.3614 54.6168 12.7105 55.2194 14.2323C55.3311 14.515 55.6866 15.5374 55.6866 15.7574V21.1402V21.1419Z" fill="#283678"/>
<path d="M21.9316 21.1419H9.43945V15.7591C9.43945 15.5374 9.79492 14.515 9.90664 14.234C10.5092 12.7122 11.7398 11.3632 13.1533 10.5625C16.124 12.9458 20.0392 12.9577 22.9997 10.5625C24.0424 11.2328 25.1326 12.0318 25.6302 13.215C23.3281 15.2699 21.6659 17.9207 21.9299 21.1419H21.9316Z" fill="#283678"/>
<path d="M18.0725 10.4085C20.9463 10.4085 23.2759 8.07885 23.2759 5.20509C23.2759 2.33134 20.9463 0.00170898 18.0725 0.00170898C15.1988 0.00170898 12.8691 2.33134 12.8691 5.20509C12.8691 8.07885 15.1988 10.4085 18.0725 10.4085Z" fill="#283678"/>
<path d="M47.053 10.4068C49.9267 10.4068 52.2564 8.07714 52.2564 5.20339C52.2564 2.32963 49.9267 0 47.053 0C44.1792 0 41.8496 2.32963 41.8496 5.20339C41.8496 8.07714 44.1792 10.4068 47.053 10.4068Z" fill="#283678"/>
<path d="M32.5628 14.2288C35.4365 14.2288 37.7661 11.8992 37.7661 9.02541C37.7661 6.15166 35.4365 3.82202 32.5628 3.82202C29.689 3.82202 27.3594 6.15166 27.3594 9.02541C27.3594 11.8992 29.689 14.2288 32.5628 14.2288Z" fill="#283678"/>
</g>
<defs>
<clipPath id="clip0_539_4950">
<rect width="65" height="65" fill="white"/>
</clipPath>
</defs>
</svg>
