<svg width="65" height="65" viewBox="0 0 65 65" fill="none" xmlns="http://www.w3.org/2000/svg">
<g clip-path="url(#clip0_539_4968)">
<path d="M0.046875 30.9725C1.55357 7.01475 29.2423 -5.9131 48.4348 9.3294C53.4691 13.3276 59.3971 22.5959 59.3971 29.1687V35.4139L54.6807 34.5826C55.9001 17.4297 40.3677 4.17165 23.5619 8.29135C14.1116 10.608 6.51697 19.0151 5.07657 28.6507C2.15872 48.165 21.662 63.1273 39.7014 55.3975L41.9173 59.4262C23.6081 68.389 1.10702 54.7468 0.303625 34.4669L0.046875 34.0261V30.9731V30.9725Z" fill="#283678"/>
<path d="M64.9455 48.46C65.0196 49.0963 65.0196 50.3222 64.9455 50.9579C63.1236 66.6106 38.6569 62.2575 42.995 46.6146C46.2561 34.8548 63.548 36.4473 64.9455 48.46ZM55.7929 47.6267V43.6019C54.7438 42.7764 52.8679 43.193 51.6329 43.4628V47.6267H47.4729C47.2031 48.863 46.7871 50.7402 47.6113 51.7906H51.6329V55.8154C52.5247 56.4862 54.8692 56.4953 55.7929 55.8154V51.7906H59.8144C60.6393 50.7408 60.2226 48.863 59.9529 47.6267H55.7929Z" fill="#283678"/>
<path d="M34.1595 27.6418H41.5091C42.5608 27.6418 44.0941 29.5989 44.0486 30.793C43.9797 32.6071 43.2296 36.9849 42.616 38.7425C42.3261 39.5732 41.7242 39.9866 41.4441 40.6229C40.7895 42.1075 41.2478 43.8092 39.0293 44.0348C36.4235 44.3 28.4584 44.3819 25.9962 44.001C25.3098 43.895 23.8785 43.1176 23.6783 42.4345L23.6094 30.6025C26.2191 29.6015 28.6553 25.6456 29.1025 22.9962C29.4288 21.0644 28.1353 16.7029 31.594 18.1381C34.714 19.4323 34.5898 24.9098 34.1602 27.6418H34.1595Z" fill="#283678"/>
<path d="M22.2341 28.739H15.5781V44.0186H22.2341V28.739Z" fill="#283678"/>
</g>
<defs>
<clipPath id="clip0_539_4968">
<rect width="65" height="65" fill="white"/>
</clipPath>
</defs>
</svg>
