<svg width="65" height="65" viewBox="0 0 65 65" fill="none" xmlns="http://www.w3.org/2000/svg">
<path d="M42.5932 48.2985L42.5751 59.4929C42.4848 60.3054 41.9883 60.9464 41.1217 60.9554L23.5626 60.8922C22.9397 60.6304 22.6328 60.1791 22.5515 59.4929V48.3617C19.0939 46.4749 16.0605 43.6311 14.1196 40.1735C13.2258 38.5666 12.4133 37.0589 13.2078 35.1992C13.948 33.4749 16.0064 32.6624 17.7668 33.2311C19.6446 33.836 19.9154 35.3978 20.8453 36.8693C26.3342 45.545 38.7835 45.5541 44.2633 36.8693C45.0126 35.6867 45.2744 34.4228 46.5022 33.6554C49.689 31.6693 53.264 34.7839 51.9189 38.3138C50.3751 42.3943 46.4029 46.3124 42.5842 48.2985H42.5932Z" fill="white"/>
<path d="M32.5638 40.634C36.0789 40.634 38.9284 37.7844 38.9284 34.2694C38.9284 30.7543 36.0789 27.9048 32.5638 27.9048C29.0487 27.9048 26.1992 30.7543 26.1992 34.2694C26.1992 37.7844 29.0487 40.634 32.5638 40.634Z" fill="white"/>
<path d="M29.3586 15.9973C30.5954 15.7897 31.6877 16.1959 32.5093 17.0987C33.8454 15.8438 35.6961 15.4466 37.1766 16.7286C38.7655 18.1008 38.4766 20.0147 37.2488 21.4772C36.8516 21.9557 33.3488 25.4494 33.069 25.5307C32.5725 25.6841 32.1482 25.6209 31.7329 25.332C31.0919 24.8897 27.4627 21.1432 27.1738 20.5202C26.3162 18.7147 27.3544 16.3313 29.3586 15.9883V15.9973Z" fill="white"/>
<path d="M1.22779 34.9917L9.44306 34.9646C10.4 35.091 10.3729 36.2465 9.30765 36.3639C7.70973 36.5535 3.16876 36.5535 1.57084 36.3639C0.686119 36.2556 0.469452 35.4792 1.21876 34.9917H1.22779Z" fill="white"/>
<path d="M55.4572 35.0007L63.7899 34.9736C64.1239 35.0278 64.3045 35.3618 64.3496 35.6688C64.2864 36.1563 63.9885 36.3188 63.5371 36.3729C61.9392 36.5625 57.3982 36.5625 55.8003 36.3729C54.9246 36.2736 54.6447 35.4431 55.4482 35.0007H55.4572Z" fill="white"/>
<path d="M16.6826 8.12506C17.134 7.97159 17.4049 8.1702 17.6667 8.4952C19.1201 10.3188 20.1312 13.307 21.5667 15.2389C22 16.0605 20.9708 16.7376 20.4201 16.0063C19.4 13.7494 17.4951 11.4653 16.5292 9.25353C16.3847 8.91951 16.1861 8.29659 16.6826 8.12506Z" fill="white"/>
<path d="M47.8563 8.13409C48.5695 7.91743 48.9487 8.45006 48.6869 9.09104L44.7056 16.0153C44.191 16.7105 43.198 16.1327 43.5139 15.3292C44.9403 13.3341 45.9605 10.4903 47.4049 8.57645C47.5313 8.41395 47.6396 8.19729 47.8473 8.13409H47.8563Z" fill="white"/>
<path d="M59.4843 19.4458C60.2607 19.5451 60.3871 20.2132 59.8003 20.7097C58.1211 22.1361 54.8982 23.2104 53.0566 24.6097C52.1538 25.034 51.5218 24.2125 52.208 23.5083L59.4934 19.4458H59.4843Z" fill="white"/>
<path d="M13.0098 23.5985C13.5695 24.2847 12.8292 25.043 12.0709 24.6006L5.32716 20.7006C4.52369 20.0506 5.18272 19.1208 6.07647 19.5631L13.0098 23.5895V23.5985Z" fill="white"/>
<path d="M52.1166 47.7297C51.6923 47.2152 52.0534 46.4659 52.7124 46.5471L59.9888 50.8082C60.4944 51.4311 59.7902 51.9909 59.1402 51.7922L52.1166 47.7297Z" fill="white"/>
<path d="M13.019 47.7388L5.98639 51.7923C5.06556 52.036 4.54195 51.1062 5.40861 50.5735L12.2336 46.6194C12.9829 46.3305 13.4614 47.0888 13.0281 47.7388H13.019Z" fill="white"/>
<path d="M33.1955 3.91797H31.9316V13.1895H33.1955V3.91797Z" fill="white"/>
</svg>
