<?xml version="1.0" encoding="UTF-8"?>
<svg id="Layer_1" xmlns="http://www.w3.org/2000/svg" version="1.1" viewBox="0 0 65 65">
  <!-- Generator: Adobe Illustrator 29.4.0, SVG Export Plug-In . SVG Version: 2.1.0 Build 152)  -->
  <defs>
    <style>
      .st0 {
        fill: #283678;
      }
    </style>
  </defs>
  <path class="st0" d="M8.3,10.5h17.2c.7.2,1.4,1,1.5,1.7.1.7.1,4,0,4.6-.3,1-1.2,1.5-2.2,1.6-5,.5-10.9-.4-16,0-1,0-1.9-.7-2.2-1.7-.2-.8-.2-4,0-4.8.3-.8.8-1.2,1.6-1.5h0Z"/>
  <path class="st0" d="M33.4,10.5h17.2c.7.2,1.4,1,1.5,1.7.1.7.1,4,0,4.6-.3,1-1.2,1.5-2.2,1.6-5,.5-10.9-.4-16,0-1,0-1.9-.7-2.2-1.7-.2-.8-.2-4,0-4.8.3-.8.8-1.2,1.6-1.5h0Z"/>
  <path class="st0" d="M8.3,34.5h17.2c.7.2,1.4,1,1.5,1.7.1.7.1,4,0,4.6-.3,1-1.2,1.5-2.2,1.6-5,.5-10.9-.4-16,0-1,0-1.9-.7-2.2-1.7-.2-.8-.2-4,0-4.8.3-.8.8-1.2,1.6-1.5h0Z"/>
  <path class="st0" d="M33.4,34.5h17.2c.7.2,1.4,1,1.5,1.7.1.7.1,4,0,4.6-.3,1-1.2,1.5-2.2,1.6-5,.5-10.9-.4-16,0-1,0-1.9-.7-2.2-1.7-.2-.8-.2-4,0-4.8.3-.8.8-1.2,1.6-1.5h0Z"/>
  <path class="st0" d="M25.7,22.5c4.1.2,8.7-.4,12.8,0,1.1,0,2.1.7,2.3,1.9.1.8.1,3.3,0,4.2-.1,1-1,1.9-2,2-4.1.5-8.9-.3-13.1,0-1.3-.2-2-1-2.1-2.3,0-.9-.1-3.4.2-4.2.3-.7,1-1.2,1.8-1.4h0Z"/>
  <path class="st0" d="M25.7,46.4c4.1.2,8.7-.4,12.8,0,1.1,0,2.1.7,2.3,1.9.1.8.1,3.3,0,4.2-.1,1-1,1.9-2,2-4.1.5-8.9-.3-13.1,0-1.3-.2-2-1-2.1-2.3,0-.9-.1-3.4.2-4.2.3-.7,1-1.2,1.8-1.4h0Z"/>
  <path class="st0" d="M47.4,22.5c2.8.1,6-.3,8.8,0,1.2.1,2.2.9,2.3,2.1.1.8,0,2.8,0,3.7-.1,1.2-.8,2-2,2.2-2.9-.3-6.4.3-9.3,0-.6,0-1.3-.5-1.6-1.1-.5-.8-.5-3.8-.3-4.8.1-1,1-1.9,2-2.1Z"/>
  <path class="st0" d="M47.4,46.4c2.8.1,6-.3,8.8,0,1.2.1,2.2.9,2.3,2.1.1.8,0,2.8,0,3.7-.1,1.2-.8,2-2,2.2-2.9-.3-6.4.3-9.3,0-.6,0-1.3-.5-1.6-1.1-.5-.8-.5-3.8-.3-4.8.1-1,1-1.9,2-2.1Z"/>
  <path class="st0" d="M8.6,22.5c2.6.1,5.6-.3,8.2,0,1.1,0,2.1.7,2.3,1.9.1.8.1,3.3,0,4.2-.1,1-1,1.9-2,2-2.7.3-5.9-.2-8.6,0-.7-.1-1.3-.5-1.7-1.1-.4-.8-.4-3.8-.3-4.7.1-1,1-1.9,2-2.1h0Z"/>
  <path class="st0" d="M8.6,46.4c2.6.1,5.6-.3,8.2,0,1.1,0,2.1.7,2.3,1.9.1.8.1,3.3,0,4.2-.1,1-1,1.9-2,2-2.7.3-5.9-.2-8.6,0-.7-.1-1.3-.5-1.7-1.1-.4-.8-.4-3.8-.3-4.7.1-1,1-1.9,2-2.1h0Z"/>
</svg>