<svg width="20" height="20" viewBox="0 0 20 20" fill="none" xmlns="http://www.w3.org/2000/svg">
<path d="M14.3858 14.9707V11.0916C14.3858 10.8999 14.0244 10.5942 13.8207 10.6041L6.08843 10.6301C5.93999 10.6567 5.65301 10.9567 5.65301 11.091V14.9702H3.56707C2.71759 14.9702 1.96447 13.9999 1.90822 13.1983C1.78947 11.5062 2.00197 9.67751 1.90822 7.97126C2.00041 7.03011 2.73114 6.30251 3.68166 6.23584H16.3942C17.3072 6.32021 18.0218 7.02646 18.127 7.93428C18.0223 9.65146 18.2692 11.5384 18.127 13.2353C18.0608 14.0233 17.3046 14.9707 16.4707 14.9707H14.3848H14.3858ZM15.6353 8.73323C15.6353 8.3874 15.3546 8.10667 15.0087 8.10667C14.6629 8.10667 14.3822 8.3874 14.3822 8.73323C14.3822 9.07907 14.6629 9.3598 15.0087 9.3598C15.3546 9.3598 15.6353 9.07907 15.6353 8.73323Z" fill="white"/>
<path d="M14.3852 5.61413H5.65234V2.98236C5.65234 2.82767 5.94661 2.52506 6.11797 2.51256L13.8201 2.49538C14.0242 2.48496 14.3852 2.79121 14.3852 2.98288V5.61465V5.61413Z" fill="white"/>
<path d="M13.1384 11.8521V16.9786C13.1384 16.9948 13.0592 17.1609 13.0395 17.1911C12.9103 17.3901 12.7223 17.4505 12.4967 17.4672C10.8743 17.588 9.10404 17.3734 7.46549 17.4656C7.25508 17.4854 6.90039 17.1661 6.90039 16.9781V11.8516H13.1384V11.8521ZM8.64466 13.1089C7.9806 13.2734 7.9806 14.1729 8.64466 14.3375C9.48737 14.2755 10.5431 14.4547 11.3608 14.3432C12.0551 14.249 12.0582 13.2203 11.3936 13.1083C10.5967 12.9745 9.47487 13.1812 8.64414 13.1083L8.64466 13.1089ZM8.64466 14.9802C7.9806 15.1448 7.9806 16.0443 8.64466 16.2089C9.48737 16.1469 10.5431 16.326 11.3608 16.2146C12.0551 16.1203 12.0582 15.0917 11.3936 14.9797C10.5967 14.8458 9.47487 15.0526 8.64414 14.9797L8.64466 14.9802Z" fill="white"/>
</svg>
