<svg width="65" height="65" viewBox="0 0 65 65" fill="none" xmlns="http://www.w3.org/2000/svg">
<g clip-path="url(#clip0_539_4961)">
<path d="M16.9177 55.2297L11 44.4827C13.9622 42.8442 16.9211 40.7554 19.9375 39.2556C21.1799 38.6395 22.7 37.9607 24.1117 37.9624C26.2378 37.9624 30.9435 40.1477 33.2828 40.8569C34.9586 41.3647 36.7224 41.6407 38.3372 42.1231C41.4214 43.0456 40.9508 47.0827 37.5806 46.8644C35.0094 46.6985 31.8 45.0819 29.1915 44.6605C27.9068 44.6198 27.4904 46.2584 28.7142 46.7983C30.1733 47.4416 33.6078 48.2287 35.2819 48.6129C38.3863 49.3272 41.2792 49.8994 44.2939 48.4995C48.6594 46.4733 53.1247 43.071 57.4784 40.7977C59.1677 39.9158 61.6661 38.7157 63.5552 39.4401C65.0668 40.0207 65.4036 42.3211 64.5014 43.5602C56.9892 48.6028 49.0605 53.1189 41.396 57.9702C39.4087 59.0214 38.0766 59.1771 35.8574 58.7556C30.3883 57.7146 24.7516 55.4667 19.2604 54.3157C18.6477 54.0668 17.3087 55.4616 16.916 55.2314L16.9177 55.2297Z" fill="#283678"/>
<path d="M48.3512 1.80786L49.4667 4.74471C51.007 5.12218 52.4797 5.72479 53.8186 6.57284L56.7893 5.38286L60.1206 8.65994C60.2543 8.96125 58.8459 11.1161 58.9678 11.7221C59.0271 12.0183 59.9022 13.5011 60.1138 14.0241C60.3795 14.6826 60.5251 15.3868 60.7655 16.052L63.5974 17.2724C63.5432 17.98 63.8005 21.8004 63.484 22.0628C63.076 22.4014 61.0837 22.7297 60.7469 23.1732C60.322 24.7153 59.6314 26.1321 58.9492 27.5675L60.1138 30.5162L56.8824 33.7459L53.8271 32.5965C52.4678 33.4293 50.9749 33.9456 49.4667 34.4297L48.1379 37.3615C47.9077 37.4411 44.1262 37.4495 43.7622 37.3835C43.576 37.3497 43.5371 37.3141 43.4305 37.1652C43.0377 36.6184 42.7026 34.6803 42.2371 34.3739C40.7374 33.9778 39.3324 33.3329 37.9715 32.6101L34.9974 33.7933L31.6661 30.5162C31.5646 30.2894 32.6614 28.3326 32.7799 27.9043C32.9526 27.2797 32.0825 26.0881 31.8117 25.4262C31.5104 24.6899 31.3445 23.896 31.0635 23.1512L28.191 21.9714C28.0708 21.7767 28.0962 17.7803 28.1673 17.3909C28.2012 17.2047 28.2367 17.1658 28.3857 17.0592C28.8376 16.7342 30.8536 16.2991 31.0635 15.9928C31.4478 14.449 32.1249 13.0187 32.8375 11.6086L31.639 8.73273L34.906 5.43195C35.4189 5.20174 37.3282 6.45773 37.9681 6.57622C39.3053 5.73494 40.7864 5.13911 42.32 4.7481L43.4355 1.81125H48.3512V1.80786ZM55.3014 19.4053C55.3014 14.1951 51.0764 9.9701 45.8663 9.9701C40.6561 9.9701 36.4311 14.1951 36.4311 19.4053C36.4311 24.6154 40.6561 28.8404 45.8663 28.8404C51.0764 28.8404 55.3014 24.6154 55.3014 19.4053Z" fill="#283678"/>
<path d="M5.04596 41.2633C5.76875 41.1482 6.45091 41.3631 6.90117 41.9522L17.3824 60.4654C17.5618 61.1374 17.4671 61.8889 16.966 62.395C16.7003 62.6625 13 64.7716 12.675 64.8359C11.573 65.0594 10.9112 64.5245 10.3814 63.6189L0.225129 45.6051C-0.0829438 44.7096 0.309765 43.9665 1.02578 43.4299C1.48958 43.0812 4.61263 41.3327 5.04427 41.2633H5.04596ZM6.09036 46.0689C6.09036 45.3833 5.53516 44.8264 4.84792 44.8264C4.16068 44.8264 3.60547 45.3816 3.60547 46.0689C3.60547 46.7561 4.16068 47.3113 4.84792 47.3113C5.53516 47.3113 6.09036 46.7561 6.09036 46.0689Z" fill="#283678"/>
<path d="M11.1702 5.18637C10.8909 4.87322 11.0974 4.61254 11.4749 4.54314C12.2417 4.40434 15.3055 4.58884 15.7405 4.27569C16.4684 3.14327 16.6783 1.50134 17.3029 0.341835C17.3892 0.181028 17.3943 -0.0237897 17.6533 -0.00178451C17.8818 -0.00855534 17.9343 0.160715 18.0257 0.318137C18.3964 0.964752 19.2106 4.00486 19.5644 4.27738L23.9739 4.53975C24.1804 4.56176 24.3243 4.65655 24.3243 4.88337C24.3243 5.27439 21.1606 7.37504 20.7628 7.93363L21.8512 12.2991L21.6345 12.6461L17.677 10.1985L13.672 12.6461C13.4757 12.5124 13.4588 12.4092 13.4672 12.184C13.5146 11.0042 14.5523 9.22855 14.5404 7.93702C14.427 7.50707 11.6526 5.72634 11.1685 5.18637H11.1702Z" fill="#283678"/>
<path d="M11.143 23.6556L15.6642 23.4389C16.0366 23.2527 16.9608 20.0806 17.3044 19.4441C17.3908 19.2833 17.3958 19.0785 17.6548 19.1005C17.8867 19.092 17.9341 19.263 18.0255 19.4221C18.3945 20.0586 19.2747 23.2544 19.6438 23.4372L24.1836 23.7064L24.253 24.1939L20.7677 27.0342C20.7508 27.845 22.0999 31.1137 21.7816 31.6147C21.6919 31.7569 21.5684 31.7806 21.4245 31.6909L17.6531 29.2788L13.6719 31.7484C13.4772 31.613 13.4586 31.5114 13.4688 31.2846C13.506 30.3824 14.7044 27.6521 14.5419 27.0376L11.0312 23.9874L11.143 23.6539V23.6556Z" fill="#283678"/>
<path d="M49.9848 14.8721C51.2662 14.7283 52.2785 16.1925 51.6352 17.357L45.335 23.6979C44.7205 24.0517 44.0045 23.9417 43.429 23.5659C43.1108 23.3577 40.3025 20.541 40.1434 20.2566C39.2632 18.6858 41.0016 17.0439 42.5911 18.0815C42.9381 18.3083 44.321 19.9283 44.4531 19.9283L49.1249 15.2581C49.3501 15.1007 49.7208 14.9026 49.9882 14.8721H49.9848Z" fill="#283678"/>
</g>
<defs>
<clipPath id="clip0_539_4961">
<rect width="65" height="65" fill="white"/>
</clipPath>
</defs>
</svg>
