<svg width="120" height="120" viewBox="0 0 120 120" fill="none" xmlns="http://www.w3.org/2000/svg">
<path d="M120.001 60.8187L74.6007 106.297L73.107 106.675C63.407 105.978 52.4664 107.572 42.9132 106.675C42.3851 106.625 40.7007 106.209 40.7007 105.612V100.116C40.2914 100.012 40.232 100.284 39.9976 100.466C38.7695 101.406 34.6914 106.256 33.7945 106.428L1.33198 106.384C0.775733 106.097 0.341358 105.519 0.244483 104.9C-0.205517 102.066 0.503858 98.1031 0.288233 95.1469L6.54761 88.4219H1.52261C1.03511 88.4219 0.331983 87.4125 0.250733 86.8875C0.0507329 85.6 0.0257329 78.2781 0.285108 77.125C0.544483 75.9719 5.16011 72.2375 6.20073 70.8781C6.38198 70.6437 6.65073 70.5844 6.55073 70.175H1.28823C1.20386 70.175 0.219483 69.2 0.241358 68.8844L0.341358 58.9344L11.3445 47.7125C12.8789 46.0469 14.9882 47.8219 14.0945 49.7625L6.31948 57.775H32.6351L73.1007 17.3125L73.4507 16.6094H47.3695L19.6632 44.3406C18.0132 45.6781 15.682 43.675 17.0757 41.9875L45.782 13.3875L47.1226 13.0906C56.8289 13.7844 67.7539 12.2 77.3164 13.0906C78.0101 13.1562 79.5289 13.5187 79.5289 14.3875V19.65C81.457 18.45 84.8695 13.4312 86.9132 13.1156L118.013 13.0937C118.841 13.1687 119.526 13.6094 119.994 14.2687V24.5625L113.444 31.3469H118.707C119.041 31.3469 119.744 32.2312 119.994 32.5156V42.8094L113.679 49.5937H118.941C119.038 49.5937 119.679 50.4656 119.994 50.5281V60.8219L120.001 60.8187ZM113.919 16.6094H87.8382L64.9632 39.3469C63.1976 40.5344 61.4851 38.6906 62.4882 36.875L76.0257 23.2781V19.4187L35.0882 60.2344V64.0938L57.1351 42.2844C59.2289 41.425 60.682 43.4469 59.282 45.1312L46.782 57.7781H72.8632L113.919 16.6094ZM75.557 64.0938L116.491 23.275V19.4156L75.557 60.2344V64.0938ZM113.919 34.8531H109.826L74.6164 70.0531L52.5195 70.1781C52.3226 70.1781 52.1914 70.3031 52.0351 70.3937C51.6195 70.6312 47.5695 74.7469 47.1351 75.3187C46.9539 75.5531 46.6851 75.6125 46.7851 76.0219H72.8664L113.919 34.8531ZM75.557 82.3406L116.491 41.5219V37.4281L75.557 78.2469V82.3406ZM113.685 53.1H109.826L74.707 88.1594L73.5789 88.4344L52.2851 88.4281L46.5476 94.0375H72.8632L90.407 76.4937C92.3913 74.7531 94.6039 76.8406 93.0976 78.95L75.5539 96.4937V100.353L116.488 59.5344V55.675L99.0601 72.9844C96.9445 74.4938 94.8664 72.2687 96.6039 70.2938L113.679 53.1H113.685ZM31.5789 61.2875H3.74448V66.6687H31.582V61.2875H31.5789ZM72.0476 61.2875H44.2101V66.6687H72.0476V61.2875ZM6.31636 75.7906H32.632L40.7007 67.7219V63.8625L33.9757 70.1219L12.0945 70.2281L6.31323 75.7937L6.31636 75.7906ZM47.0195 70.175H43.3945C42.7632 70.175 36.2039 77.3625 35.0914 78.2438V82.3375L47.0226 70.175H47.0195ZM3.74448 79.2969V84.9094H31.582V79.2969H3.74448ZM72.0476 79.5312H44.2101V84.9125H72.0476V79.5312ZM31.5789 97.5437H20.0007C18.2476 97.5437 17.4851 95.15 18.9539 94.1562L32.3507 93.9875L40.7039 85.7312V81.8719L33.932 88.3187L12.0539 88.4281L6.31636 94.0375H12.5164C13.2195 94.0375 13.8851 96.3375 12.757 97.0875C12.6039 97.1906 11.6851 97.5469 11.5789 97.5469H3.74448V102.928H31.582V97.5469L31.5789 97.5437ZM47.0195 88.4219H43.1601L35.0914 96.4906V100.35L47.0226 88.4187L47.0195 88.4219ZM72.0476 97.5437H44.2101V103.156H72.0476V97.5437Z" fill="#283678"/>
</svg>
