<svg width="120" height="120" viewBox="0 0 120 120" fill="none" xmlns="http://www.w3.org/2000/svg">
<g clip-path="url(#clip0_539_4677)">
<path d="M120 60.9375V63.5156L119.105 66.0187C112.28 74.0578 105.586 83.3367 98.3227 90.9398C95.3578 94.0453 91.1508 95.9812 86.8313 96.3234C76.732 97.1226 65.625 95.7422 55.418 96.3164L46.4062 97.0312L48.2227 99.3117C48.3797 100.2 48.4172 101.102 47.7727 101.794L31.5281 118.362C29.7961 120.052 28.3242 118.498 26.9484 117.305C18.6891 110.142 10.1859 101.409 2.21953 93.7523C1.39688 92.9625 0.532031 92.182 0 91.1672V89.7609L17.2664 71.7539C20.1469 69.8719 21.4453 74.1445 23.7727 74.9906C28.3148 68.7586 34.9547 63.8437 42.7758 62.8101C49.0359 61.9828 53.7188 64.3547 59.6508 64.9148C67.4273 65.6484 76.2844 64.3055 83.7633 65.1773C86.1656 65.4586 88.2234 67.0523 89.5242 69.0281L89.8664 69.1289L103.716 55.5492C109.397 50.9859 118.216 53.9015 120 60.9351V60.9375ZM84.9961 77.9648C87.1828 75.9445 86.6555 70.8117 83.4539 69.9445C74.782 69.389 65.6977 70.5445 57.1031 69.3422C51.1172 68.5031 47.318 66.3914 40.9148 67.9875C35.3742 69.368 30.2906 73.7695 27.2203 78.4406L27.4031 78.8742L42.0773 92.8101C56.5898 90.8508 71.2875 91.8937 85.9078 91.65C90.0984 91.2703 92.5734 90.0703 95.3977 87.0773C102.124 79.9476 108.136 71.5289 114.713 64.2047C116.571 61.4859 113.634 58.5 110.958 58.1461C108.792 57.8601 107.761 58.3336 106.17 59.6461C100.973 63.9328 96.3422 70.1883 91.1602 74.6367C90.7641 79.2094 87.9563 83.264 83.0953 83.6812C77.4188 84.1687 71.0414 83.3109 65.2875 83.6601C62.8102 83.2664 62.5266 79.2961 65.9672 78.9773C71.2195 78.4898 77.4211 79.5539 82.6172 78.9867C83.3883 78.9023 84.4289 78.4898 84.9961 77.9672V77.9648ZM18.6938 76.882L5.61094 90.4476L29.768 113.742L42.8508 100.177L18.6938 76.882Z" fill="#283678"/>
<path d="M46.6416 23.4352V23.0906C40.447 15.8578 44.108 4.12734 53.2041 1.52109C64.8244 -1.80703 74.7478 10.0945 69.2705 20.8687C69.0525 21.2977 67.5713 23.2195 67.7377 23.4328C69.54 24.0281 70.8736 25.5492 72.0736 26.9484C73.1189 25.3922 74.6119 24.2531 76.1939 23.2969C74.9963 20.9977 73.6158 18.9656 73.3674 16.2844C71.5627 -3.18281 100.053 -3.93047 100.562 14.168C100.66 17.7023 99.1627 20.4867 97.5033 23.4328C100.48 24.6797 102.964 28.0664 103.717 31.1695C104.429 34.1109 104.319 42.1219 104.078 45.3609C103.799 49.0758 101.047 50.6297 97.6322 50.8687C92.9611 51.1945 77.8017 51.5062 73.8197 50.5219C73.2619 50.3836 72.3431 49.7508 72.0361 49.732C71.8181 49.718 69.083 50.7844 67.8666 50.8687C63.5213 51.1711 47.5931 51.4852 44.0541 50.5195C43.4916 50.3672 42.5517 49.6852 42.3103 49.6852C42.0689 49.6852 41.1291 50.3648 40.5666 50.5195C37.0181 51.4852 21.1134 51.1687 16.7541 50.8664C13.8197 50.6648 10.9228 49.4812 10.3744 46.2305C9.95016 43.7203 10.0463 35.1492 10.3439 32.482C10.7377 28.9336 13.5384 24.7359 16.8806 23.4305C16.0369 21.7922 15.0174 20.5125 14.4713 18.6937C10.6884 6.12187 24.8728 -4.17422 35.4689 3.55547C41.6845 8.09062 43.0275 17.1492 37.9744 23.0859C39.5939 24.2602 41.1642 25.2422 42.3056 26.9484C43.4283 25.4789 44.8697 24.0398 46.6416 23.4352ZM36.3455 14.5453C36.3455 9.63515 32.3658 5.65312 27.4533 5.65312C22.5408 5.65312 18.5611 9.63281 18.5611 14.5453C18.5611 19.4578 22.5408 23.4375 27.4533 23.4375C32.3658 23.4375 36.3455 19.4578 36.3455 14.5453ZM66.0619 14.55C66.0619 9.6375 62.0799 5.65547 57.1674 5.65547C52.2549 5.65547 48.2728 9.6375 48.2728 14.55C48.2728 19.4625 52.2549 23.4445 57.1674 23.4445C62.0799 23.4445 66.0619 19.4625 66.0619 14.55ZM95.7783 14.55C95.7783 9.64219 91.7986 5.6625 86.8908 5.6625C81.983 5.6625 78.0033 9.64219 78.0033 14.55C78.0033 19.4578 81.983 23.4375 86.8908 23.4375C91.7986 23.4375 95.7783 19.4578 95.7783 14.55ZM15.5869 45.9375H39.4931L39.8447 45.5859V32.6953C39.8447 32.1305 38.7384 30.0609 38.3259 29.5266C37.522 28.4812 35.347 26.9273 34.0369 26.7609C33.2658 26.6625 30.3666 27.9961 28.9416 28.1227C28.0134 28.2047 26.6189 28.1953 25.6931 28.0969C24.1908 27.9375 22.1845 26.7914 21.1978 26.7258C20.3377 26.6695 18.3877 27.8086 17.7033 28.3664C16.2994 29.5078 15.2377 31.3828 15.0267 33.1898C14.7502 35.5641 14.6799 42.5859 14.9892 44.8945C15.0361 45.2484 15.2236 45.8367 15.5869 45.9375ZM44.7666 32.6953V45.5859L45.1181 45.9375H69.0244C69.322 45.9375 69.5799 45.2039 69.622 44.8945C69.9338 42.5859 69.8611 35.5641 69.5845 33.1898C69.3736 31.3805 68.3142 29.5078 66.908 28.3664C66.2213 27.8086 64.2713 26.6695 63.4134 26.7258C62.4267 26.7914 60.4205 27.9375 58.9181 28.0969C57.9924 28.1953 56.5978 28.2047 55.6697 28.1227C54.2447 27.9961 51.3431 26.6625 50.5744 26.7609C48.1392 27.0703 45.1111 30.2812 44.7689 32.6977L44.7666 32.6953ZM80.3377 26.7609C78.5916 26.9508 76.215 28.9758 75.3666 30.4852C73.9463 33.0094 74.0236 41.3414 74.2861 44.4258C74.326 44.8922 74.3353 45.3234 74.6424 45.7102L99.0455 45.7266C99.3291 45.5016 99.3431 45.2227 99.3853 44.8945C99.683 42.5344 99.6291 35.8242 99.3502 33.4242C99.0736 31.0523 97.5197 28.643 95.3939 27.5367C92.572 26.0672 92.5697 27.2672 90.0525 27.8273C87.8494 28.3172 85.4705 28.2633 83.2908 27.6867C82.372 27.443 81.0783 26.6812 80.3377 26.7609Z" fill="#283678"/>
<path d="M56.0789 83.6813C57.3889 83.6813 58.4508 82.6193 58.4508 81.3094C58.4508 79.9994 57.3889 78.9375 56.0789 78.9375C54.769 78.9375 53.707 79.9994 53.707 81.3094C53.707 82.6193 54.769 83.6813 56.0789 83.6813Z" fill="#283678"/>
</g>
<defs>
<clipPath id="clip0_539_4677">
<rect width="120" height="120" fill="white"/>
</clipPath>
</defs>
</svg>
