<svg width="65" height="65" viewBox="0 0 65 65" fill="none" xmlns="http://www.w3.org/2000/svg">
<path d="M31.3894 2.05833C41.7894 1.1375 49.2373 12.0792 44.579 21.45C43.9561 22.7229 41.9519 24.7812 41.7352 25.8375C41.5456 26.7583 41.8977 26.4333 42.3581 26.7583C44.2269 28.0312 43.3331 30.3604 41.1123 30.55C35.6144 31.0104 29.4394 30.1979 23.8873 30.55C21.829 30.4687 20.9352 28.0854 22.6956 26.8125C23.0477 26.5687 23.454 26.7312 23.454 26.1896C23.454 25.2687 21.2873 22.9125 20.7186 21.8292C16.2498 13.3521 21.9102 2.95208 31.3894 2.08541V2.05833ZM36.0748 11.7C34.8831 11.9167 31.6873 15.9792 31.3623 15.9792C30.7394 15.5187 29.954 14.2729 29.2498 14.0562C27.3811 13.4604 25.7831 15.3562 26.7581 17.0354C26.9477 17.3875 29.8727 20.2854 30.2519 20.5292C30.9561 20.9625 31.6331 21.0167 32.3644 20.6646C33.0686 20.3396 37.2394 16.1146 37.8894 15.3021C39.379 13.4875 38.3498 11.2937 36.0748 11.7271V11.7Z" fill="#283678"/>
<path d="M62.9695 43.9563V50.998C62.9695 51.5125 62.157 52.4063 61.6154 52.5688L38.2695 62.5626C35.2091 62.9146 31.4987 63.0771 28.4112 62.8605C27.5175 62.8063 26.8945 62.5625 26.082 62.2917C18.4987 59.5563 10.9966 55.3855 3.3862 52.5417C2.92578 52.4334 2.11328 51.4313 2.11328 51.0251V43.9834L32.4737 56.7667L33.9091 56.3334L62.9424 43.9834L62.9695 43.9563Z" fill="#283678"/>
<path d="M30.5229 51.5667L9.23536 42.5209C8.99161 42.2501 9.45203 40.6251 9.47911 40.1105C9.56036 39.0542 9.5062 37.6188 9.15411 36.6438C8.6937 35.3438 7.20411 33.9355 9.15411 32.7438C10.0749 32.1751 12.4312 32.5813 13.5416 32.7438C19.9604 33.7188 26.1624 36.8334 30.4958 41.6272V51.5667H30.5229Z" fill="#283678"/>
<path d="M34.5859 41.7625C39.0547 36.6167 46.1234 33.2855 52.8943 32.5813C54.1672 32.4459 56.063 32.175 56.6859 33.5834C57.3089 34.9917 56.2797 35.6417 55.9005 36.8605C55.3047 38.7834 55.7651 40.6521 55.9818 42.575L34.5859 51.5938V41.7625Z" fill="#283678"/>
<path d="M27.7055 32.4728C30.5763 32.7436 34.5034 32.0124 37.2659 32.4728C39.5409 32.852 39.4867 36.1561 37.1576 36.4811C34.3138 36.8603 30.6305 36.2374 27.7055 36.4811C25.593 35.8311 25.593 33.1228 27.7055 32.4728Z" fill="#283678"/>
</svg>
