<svg width="65" height="65" viewBox="0 0 65 65" fill="none" xmlns="http://www.w3.org/2000/svg">
<path d="M23.1851 0L30.0893 4.43137C30.5246 4.44456 34.7515 1.43096 35.8198 1.0419C37.2771 0.514355 38.9191 0.910013 37.9497 2.6641C36.9804 4.41818 33.4392 5.86233 31.9951 7.33945L33.3205 15.3779C33.3403 15.8065 31.7115 17.1386 31.4939 17.0924L28.7573 9.50238L23.5742 12.6149C23.106 13.1358 23.4753 13.9403 23.251 14.4415C23.1653 14.6262 22.1762 15.4966 21.9718 15.5691C21.7673 15.6417 21.8201 15.5362 21.7673 15.4241C21.5563 14.9493 21.2134 13.9008 21.4178 13.4326C17.9229 14.2437 20.4155 11.9621 20.277 11.784L18.5823 10.6498L18.5625 10.386C18.6614 10.2673 19.9275 9.64746 20.0858 9.64086C20.554 9.63427 21.3387 10.2344 21.8267 10.1091L26.7328 6.63386L20.9694 1.26611L20.9101 0.89023L22.6773 0H23.1851Z" fill="#283678"/>
<path d="M37.7316 32.345C39.6242 32.3318 42.5784 32.2923 44.3787 32.589C45.869 32.8396 46.1328 34.1453 46.2449 35.4114C46.4889 38.1678 46.3965 41.1418 46.2449 43.8982C46.1196 46.1667 46.5944 48.145 43.6467 48.3955C40.6991 48.6461 37.5668 48.5604 34.6521 48.3955C33.2343 48.3164 31.1307 48.6593 30.5307 46.9448C30.379 46.5096 30.3065 45.316 30.2801 44.7885C30.1086 41.7485 29.9899 37.3633 30.4251 34.4024C30.5438 33.5913 31.3352 32.7209 32.1529 32.5824C33.7025 32.3252 36.116 32.3516 37.7316 32.3384V32.345Z" fill="#283678"/>
<path d="M15.6287 36.4071C16.7167 35.4641 21.3855 34.2574 22.9549 33.9145C23.8584 33.7166 26.1004 33.1693 26.8983 33.3474C28.2106 33.6441 27.6303 35.8862 27.6171 36.7962C27.5775 39.2822 27.571 41.8012 27.6171 44.2807C27.6369 45.3688 28.2831 47.624 26.4235 47.6306C25.652 47.6306 23.6737 47.1294 22.8099 46.9382C21.1415 46.5623 16.7695 45.4479 15.5891 44.406C14.2043 43.186 14.323 40.7923 14.4417 39.0778C14.5142 38.1018 14.8769 37.0533 15.6287 36.4005V36.4071Z" fill="#283678"/>
<path d="M34.2502 17.7848C34.9492 16.9803 36.0175 16.6703 37.0528 16.5978C38.6684 16.4857 41.1017 16.4263 42.2557 17.7386C43.3042 18.9256 44.5571 23.8845 44.9132 25.5924C45.0846 26.4167 45.6254 28.6126 45.2759 29.2588C44.689 30.3601 42.8558 29.7864 41.8732 29.7732C39.519 29.727 37.1253 29.727 34.7645 29.7732C33.261 29.7996 31.0651 30.637 31.1509 28.3159C31.2234 26.5288 33.1489 19.0443 34.2436 17.7848H34.2502Z" fill="#283678"/>
<path d="M49.1996 33.6177C49.892 32.9714 52.6155 33.71 53.5716 33.921C55.2136 34.2771 59.8692 35.4641 61.0034 36.4928C62.441 37.7918 62.5135 42.4606 61.4452 43.9048C60.5682 45.0983 57.6997 45.8962 56.2489 46.3117C54.7982 46.7271 51.6923 47.5844 50.2085 47.6305C49.2524 47.6635 48.7842 46.9315 48.7644 46.0611C48.7314 44.6961 49.015 43.0145 49.0348 41.6297C49.0611 39.7569 48.9358 37.9105 48.9095 36.0444C48.8963 35.3058 48.494 34.2639 49.1996 33.6177Z" fill="#283678"/>
<path d="M31.4686 51.3564C31.6797 51.1453 32.2072 50.9409 32.5039 50.9277C33.5392 50.875 35.0889 51.1651 36.1704 51.1915C38.7949 51.2509 41.3535 50.9211 43.9055 50.9211C44.7561 50.9211 45.4947 51.4685 45.4749 52.3719C45.4485 53.5918 44.6572 56.5065 44.3077 57.799C43.7143 60.0015 42.8768 63.9053 40.2127 64.2218C38.419 64.4329 35.4252 64.5582 34.2119 63.0283C33.0842 61.6039 31.3104 54.6931 31.1719 52.7675C31.1389 52.273 31.0928 51.7322 31.4686 51.3564Z" fill="#283678"/>
<path d="M18.2258 12.8127L20.0129 15.4505C18.4566 16.3671 16.9333 17.4881 15.5749 18.6817C6.15163 26.9707 1.45649 40.6671 7.82659 52.2796C12.5745 60.9379 22.2483 64.9473 31.8628 64.6175C32.1925 64.6044 32.509 64.4989 32.8651 64.4791C33.0168 64.4725 33.5641 64.3933 33.5641 64.611C26.8841 65.4287 20.0392 64.3472 14.3154 60.7401C3.2963 53.7765 0.427783 40.2912 5.2614 28.5138C7.87275 22.1503 12.3437 16.888 17.8631 12.8589L18.2258 12.8127Z" fill="#283678"/>
<path d="M46.0735 18.1343C46.5747 17.9562 47.8078 18.5365 48.3156 18.7673C53.2218 20.9764 57.9565 25.7441 60.0732 30.703C60.3832 31.4218 61.2404 33.0835 59.7699 32.9121C58.6027 32.7736 56.5717 31.9031 55.266 31.58C53.5778 31.1712 51.4215 31.0195 49.8587 30.5249C49.1003 30.281 48.4475 29.6479 48.2035 28.8896C47.7155 27.3795 47.5638 25.2297 47.1748 23.5877C46.9506 22.6448 45.7372 19.1959 45.8098 18.6024C45.8295 18.431 45.8955 18.1936 46.0735 18.1343Z" fill="#283678"/>
<path d="M29.7406 18.1475C29.978 18.1014 30.3275 18.0552 30.5385 18.1805L30.7627 18.7806C30.3406 20.4423 29.7538 22.0513 29.3581 23.7197C28.9624 25.3881 28.8306 27.2081 28.4019 28.7248C28.2239 29.3512 27.8414 29.9183 27.2875 30.2678C26.4104 30.8218 23.0803 31.191 21.7944 31.4878C20.3239 31.8307 18.0423 32.7671 16.7564 32.9187C15.0683 33.1166 16.6641 30.2612 17.0399 29.5227C19.1897 25.3023 23.166 21.3589 27.3864 19.2158C27.9205 18.9454 29.2394 18.253 29.7472 18.1541L29.7406 18.1475Z" fill="#283678"/>
<path d="M16.1701 48.0394C16.4537 47.98 16.7241 48.0196 17.0076 48.0526C18.3726 48.224 20.5224 49.1274 22.0457 49.4769C23.4634 49.8001 25.3428 49.932 26.6353 50.3342C27.3277 50.5452 28.1124 51.2244 28.3498 51.9168C28.8114 53.2687 28.9763 55.4909 29.3323 57.0142C29.7544 58.8211 30.394 60.5752 30.7699 62.3688C30.4864 62.8634 30.3083 62.8766 29.8005 62.7579C27.2551 62.1512 23.0018 58.9661 21.1554 57.0802C19.5398 55.4316 16.4867 51.2508 16.0185 49.0417C15.9591 48.7714 15.8272 48.1515 16.1701 48.0394Z" fill="#283678"/>
<path d="M59.5142 48.0525C61.1958 47.7822 60.5957 48.89 60.2066 49.8792C58.1492 55.0887 52.8606 60.3641 47.6379 62.3951C47.117 62.5996 46.0355 63.226 45.7981 62.3424C45.719 62.0588 47.1433 57.456 47.328 56.6383C47.6511 55.2205 47.783 53.3412 48.1852 52.0487C48.4226 51.2772 49.0491 50.6507 49.8206 50.3935C51.2846 49.9055 53.4145 49.7605 55.0169 49.378C56.4149 49.0483 58.2284 48.2636 59.5208 48.0525H59.5142Z" fill="#283678"/>
</svg>
