<svg width="65" height="65" viewBox="0 0 65 65" fill="none" xmlns="http://www.w3.org/2000/svg">
<path d="M58.5197 9.13381C55.3737 5.98651 50.372 3.49506 45.9091 3.15446C28.5918 1.83366 17.5145 19.2647 25.7064 34.3993L32.1902 37.5473C32.8987 36.3753 32.991 35.0129 33.7846 33.8221C34.4125 32.8796 35.5136 32.1328 36.2488 31.2592C33.9965 29.4366 31.2353 29.0531 28.4832 29.9176C27.7123 30.16 26.1868 31.3788 25.7779 30.8328C25.2956 30.1893 24.63 26.5798 24.5494 25.6321C23.9033 18.0304 27.8404 10.5066 34.5724 6.93356C50.6697 -1.61004 68.1137 14.3722 61.6898 31.1194C58.3624 29.2695 54.465 28.5571 51.3515 31.2624L54.3935 34.9252L55.2652 39.2269C58.5139 38.4111 59.795 37.5518 61.5312 34.7315C66.4972 26.6656 65.1998 15.8152 58.5204 9.13316L58.5197 9.13381ZM49.9508 23.2772C49.9508 19.8673 47.187 17.1035 43.7771 17.1035C40.3672 17.1035 37.6034 19.8673 37.6034 23.2772C37.6034 26.6871 40.3672 29.4509 43.7771 29.4509C47.187 29.4509 49.9508 26.6871 49.9508 23.2772ZM36.0226 23.7751C36.0226 21.0958 33.8509 18.9241 31.1716 18.9241C28.4923 18.9241 26.3207 21.0958 26.3207 23.7751C26.3207 26.4544 28.4923 28.626 31.1716 28.626C33.8509 28.626 36.0226 26.4544 36.0226 23.7751ZM61.1815 23.7627C61.1815 21.0964 59.0202 18.9352 56.3539 18.9352C53.6876 18.9352 51.5264 21.0964 51.5264 23.7627C51.5264 26.429 53.6876 28.5903 56.3539 28.5903C59.0202 28.5903 61.1815 26.429 61.1815 23.7627ZM53.5401 40.3013C54.7458 32.3453 45.1856 28.2224 38.787 31.5575C36.9423 32.5189 33.238 35.8768 34.0492 38.2122C34.3235 39.0026 40.1039 39.691 41.2408 39.9718C43.1459 40.4424 45.2812 41.2978 45.768 43.4213C48.6163 42.928 50.9485 41.4388 53.5401 40.302V40.3013ZM27.3093 45.1009C31.7573 45.0756 36.0401 46.7331 40.5557 46.1851C42.0357 46.0057 45.5165 44.5868 43.8063 42.7154C42.4134 41.1912 35.9914 40.601 33.5883 39.7956C26.7334 37.4992 25.5244 33.5764 17.0315 35.7994C16.0734 36.0503 9.89647 38.3162 9.71772 38.8453C9.59422 39.2106 9.73462 39.6539 9.91403 39.988C12.8085 44.4275 14.7364 49.7582 17.4761 54.2302C18.8229 56.4291 19.6361 56.2237 22.1405 56.5546C26.3324 57.1084 33.9952 57.5562 38.0486 56.8159C42.5583 55.9923 52.1985 49.844 56.3578 47.1699C57.7189 46.295 62.709 43.3713 63.0184 42.0914C63.4097 40.4736 62.1194 39.481 60.6387 39.2808C57.7774 38.8934 52.9531 42.4567 50.2264 43.5546C49.0564 44.0258 46.795 44.3827 45.9734 44.8214C45.6289 45.0054 45.5015 45.619 45.0628 45.9368C40.3282 49.3708 35.3167 48.4179 30.1089 46.6291L27.31 45.0996L27.3093 45.1009ZM1.12668 41.2809C0.581976 41.8451 0.257626 42.6719 0.598876 43.4265L10.0999 61.3275C10.6186 62.0081 11.5332 61.9879 12.2943 61.8118C12.5719 61.7474 16.4946 59.4484 16.7013 59.2306C17.5184 58.3687 17.3474 57.6999 17.0263 56.6358L7.75278 39.0761C7.18663 38.5684 6.57758 38.3799 5.84503 38.5665C5.44788 38.6679 1.40033 40.9975 1.12733 41.2809H1.12668Z" fill="white"/>
<path d="M27.309 45.1008L30.1079 46.6303C35.3157 48.4191 40.3272 49.372 45.0618 45.938C45.5006 45.6202 45.628 45.0066 45.9725 44.8226C46.7947 44.3839 49.0554 44.027 50.2254 43.5558C52.9522 42.4579 57.7765 38.8946 60.6378 39.282C62.1185 39.4822 63.4087 40.4748 63.0174 42.0926C62.708 43.3725 57.718 46.2962 56.3569 47.1711C52.1975 49.8452 42.558 55.9929 38.0477 56.8171C33.9949 57.5574 26.3314 57.1089 22.1396 56.5558C19.6351 56.2249 18.8226 56.4303 17.4752 54.2314C14.7354 49.7594 12.8069 44.4287 9.91309 39.9892C9.73304 39.6558 9.59329 39.2118 9.71679 38.8465C9.89554 38.3168 16.0725 36.0515 17.0306 35.8006C25.5235 33.5776 26.7325 37.4997 33.5874 39.7968C35.9904 40.6022 42.4124 41.1924 43.8054 42.7166C45.5155 44.588 42.0348 46.0069 40.5547 46.1863C36.0392 46.7343 31.7563 45.0768 27.3084 45.1021L27.309 45.1008Z" fill="#283678"/>
<path d="M58.52 9.13389C65.1994 15.8159 66.4968 26.667 61.5308 34.7322C59.7947 37.5519 58.5135 38.4112 55.2648 39.2276L54.3932 34.9259L51.3512 31.2631C54.4647 28.5578 58.3621 29.2702 61.6894 31.1201C68.1134 14.3729 50.6687 -1.60931 34.5721 6.93429C27.84 10.5073 23.9036 18.0317 24.5491 25.6328C24.6297 26.5812 25.2959 30.19 25.7776 30.8335C26.1864 31.3795 27.712 30.1601 28.4829 29.9183C31.235 29.0538 33.9962 29.4366 36.2484 31.2599C35.5133 32.1335 34.4128 32.8803 33.7843 33.8228C32.9906 35.0136 32.8977 36.3754 32.1898 37.548L25.7061 34.4C17.5141 19.2654 28.5914 1.83439 45.9087 3.15519C50.3716 3.49579 55.3734 5.98724 58.5194 9.13454L58.52 9.13389Z" fill="#283678"/>
<path d="M1.12639 41.2809C1.40004 40.9975 5.44694 38.6679 5.84409 38.5665C6.57664 38.3793 7.18569 38.5678 7.75184 39.0761L17.0254 56.6358C17.3471 57.6999 17.5181 58.3694 16.7004 59.2306C16.4937 59.4484 12.5709 61.7474 12.2934 61.8118C11.5329 61.9879 10.6177 62.0081 10.099 61.3275L0.598592 43.4272C0.257992 42.6719 0.581692 41.8457 1.12639 41.2815V41.2809Z" fill="#283678"/>
<path d="M53.5389 40.3013C50.9474 41.4382 48.6152 42.9273 45.7669 43.4207C45.28 41.2971 43.1448 40.4424 41.2396 39.9711C40.1028 39.6903 34.3223 39.002 34.048 38.2116C33.2368 35.8761 36.9412 32.5189 38.7859 31.5569C45.1845 28.2217 54.7447 32.3447 53.5389 40.3007V40.3013Z" fill="#283678"/>
<path d="M43.7772 29.4509C47.1869 29.4509 49.9509 26.6869 49.9509 23.2772C49.9509 19.8676 47.1869 17.1035 43.7772 17.1035C40.3676 17.1035 37.6035 19.8676 37.6035 23.2772C37.6035 26.6869 40.3676 29.4509 43.7772 29.4509Z" fill="#283678"/>
<path d="M31.1713 28.626C33.8504 28.626 36.0222 26.4541 36.0222 23.775C36.0222 21.0959 33.8504 18.9241 31.1713 18.9241C28.4922 18.9241 26.3203 21.0959 26.3203 23.775C26.3203 26.4541 28.4922 28.626 31.1713 28.626Z" fill="#283678"/>
<path d="M56.3529 28.5902C59.0191 28.5902 61.1805 26.4288 61.1805 23.7626C61.1805 21.0964 59.0191 18.9351 56.3529 18.9351C53.6868 18.9351 51.5254 21.0964 51.5254 23.7626C51.5254 26.4288 53.6868 28.5902 56.3529 28.5902Z" fill="#283678"/>
</svg>
