<svg width="33" height="33" viewBox="0 0 33 33" fill="none" xmlns="http://www.w3.org/2000/svg">
<path d="M14.5352 19.142L19.7007 16.0572L14.5352 12.9724V19.142Z" fill="#283678"/>
<path d="M16.6357 0C7.9196 0 0.855469 7.1853 0.855469 16.0509C0.855469 24.9166 7.9196 32.1019 16.6357 32.1019C25.3518 32.1019 32.416 24.9166 32.416 16.0509C32.416 7.1853 25.3518 0 16.6357 0ZM24.5258 18.9225C24.5258 21.6876 21.8075 21.6876 21.8075 21.6876H11.464C8.7456 21.6876 8.74559 18.9225 8.74559 18.9225V13.1856C8.74559 10.4206 11.464 10.4206 11.464 10.4206H21.8075C24.5258 10.4206 24.5258 13.1856 24.5258 13.1856V18.9225Z" fill="#283678"/>
</svg>
