<svg width="148" height="110" viewBox="0 0 148 110" fill="none" xmlns="http://www.w3.org/2000/svg">
<g clip-path="url(#clip0_2007_139)">
<path d="M18.8148 65.0127V84.1284H13.5239L6.2716 75.4438V84.1284H0V65.0127H5.2909L12.5432 73.6972V65.0127H18.8148Z" fill="white"/>
<path d="M43.4531 65.0127V84.1284H37.0241V77.0813H31.0794V84.1284H24.6504V65.0127H31.0794V71.7808H37.0241V65.0127H43.4531Z" fill="white"/>
<path d="M62.2924 80.7928H55.0401L53.7567 84.1284H47.2188L55.5607 65.0127H61.8807L70.2227 84.1284H63.5758L62.2924 80.7928ZM60.5247 76.1595L58.6723 71.3563L56.8199 76.1595H60.5247Z" fill="white"/>
<path d="M77.1717 70.0099H71.5781V65.0127H89.1943V70.0099H83.6007V84.1284H77.1717V70.0099Z" fill="white"/>
<path d="M117.501 80.7928H110.249L108.966 84.1284H102.428L110.77 65.0127H117.09L125.432 84.1284H118.785L117.501 80.7928ZM115.722 76.1595L113.869 71.3563L112.017 76.1595H115.722Z" fill="white"/>
<path d="M148 65.0127V84.1284H142.709L135.457 75.4438V84.1284H129.186V65.0127H134.476L141.729 73.6972V65.0127H148Z" fill="white"/>
<path d="M97.8756 52.9321H97.8514L96.8828 40.0266L104.075 38.3042L103.784 37.3339L96.8101 39.0077L96.4953 34.7504L102.016 31.5604L103.215 29.4741L96.1927 34.338L90.9623 33.1857L97.1128 27.5941L95.4662 26.5267L90.3085 33.0523L85.066 31.9L89.4489 26.1507L88.4076 25.3987L84.4849 31.7666L79.3877 30.6507L82.4629 24.2707L81.2522 23.7855L78.8671 30.5415L74.4842 29.5833L75.1864 22.7788H72.8376L73.5398 29.5712L69.157 30.5294L66.7718 23.7734L65.5611 24.2586L68.6243 30.6386L63.5271 31.7544L59.6043 25.3866L58.5631 26.1386L62.9459 31.8757L57.7035 33.028L52.5457 26.5146L50.8991 27.582L57.0497 33.1614L51.8193 34.3137L44.8091 29.462L46.0078 31.5482L51.5045 34.7261L51.1897 38.9956L44.2401 37.3218L43.9495 38.2921L51.1171 40.0144L50.1485 52.92L41.1406 58.6328H44.6033L51.105 52.92L53.0179 40.1964H95.0061L96.9191 52.92H96.9433L103.445 58.6328H106.908L97.8998 52.92L97.8756 52.9321ZM53.1753 39.032L53.6838 35.6843L73.9999 30.6264L94.316 35.6843L94.8245 39.032H53.1874H53.1753Z" fill="#F9A61C"/>
<path d="M74.0007 20.0981L41.1172 26.9754V58.6327H44.5799L46.6502 30.6991L74.0007 25.338L101.351 30.6991L103.422 58.6327H106.896V26.9754L74.0007 20.0981Z" fill="white"/>
<path d="M106.896 0L101.351 1.16441L101.424 16.4108L41.1172 0V23.5428L46.5534 22.4027L46.626 7.25328L106.896 23.5428V0Z" fill="white"/>
<path d="M12.1549 109.43C10.702 109.054 9.51547 108.532 8.60742 107.902L10.3751 103.911C11.2347 104.481 12.2154 104.93 13.3414 105.282C14.4674 105.633 15.5812 105.803 16.6709 105.803C18.7413 105.803 19.7825 105.282 19.7825 104.251C19.7825 103.705 19.4919 103.305 18.8987 103.038C18.3054 102.771 17.361 102.492 16.0534 102.201C14.6127 101.885 13.414 101.558 12.4576 101.206C11.489 100.854 10.6657 100.284 9.97555 99.496C9.28543 98.7076 8.93432 97.6524 8.93432 96.3303C8.93432 95.1659 9.24911 94.1106 9.8908 93.1767C10.5325 92.2427 11.4769 91.4907 12.736 90.9449C13.9952 90.3991 15.5449 90.1201 17.3852 90.1201C18.6444 90.1201 19.8793 90.2657 21.0901 90.5446C22.3129 90.8236 23.3784 91.236 24.3106 91.7818L22.6519 95.7966C20.8358 94.8141 19.0682 94.3168 17.361 94.3168C16.2835 94.3168 15.5086 94.4745 15.0122 94.7899C14.5158 95.1052 14.2737 95.5176 14.2737 96.027C14.2737 96.5365 14.5642 96.9246 15.1454 97.1793C15.7265 97.434 16.6588 97.7009 17.9543 97.9677C19.4072 98.2831 20.6179 98.6106 21.5623 98.9623C22.5187 99.3141 23.342 99.8841 24.0443 100.66C24.7465 101.437 25.0976 102.492 25.0976 103.814C25.0976 104.966 24.7828 105.997 24.1411 106.931C23.4994 107.865 22.5551 108.605 21.2838 109.151C20.0125 109.709 18.4628 109.988 16.6467 109.988C15.097 109.988 13.6077 109.794 12.1428 109.418L12.1549 109.43Z" fill="#F9A61C"/>
<path d="M42.2779 94.7899H36.418V90.5083H53.5135V94.7899H47.6778V109.624H42.2779V94.7899Z" fill="#F9A61C"/>
<path d="M81.7591 105.439V109.624H66.4434V90.5083H81.408V94.6929H71.7827V97.9193H80.2578V101.958H71.7827V105.452H81.7591V105.439Z" fill="#F9A61C"/>
<path d="M110.974 105.439V109.624H95.6582V90.5083H110.623V94.6929H100.998V97.9193H109.473V101.958H100.998V105.452H110.974V105.439Z" fill="#F9A61C"/>
<path d="M124.887 90.4961H130.287V105.33H139.391V109.612H124.887V90.4961Z" fill="#F9A61C"/>
</g>
<defs>
<clipPath id="clip0_2007_139">
<rect width="148" height="110" fill="white"/>
</clipPath>
</defs>
</svg>
