<svg width="172" height="48" viewBox="0 0 172 48" fill="none" xmlns="http://www.w3.org/2000/svg">
<g clip-path="url(#clip0_2007_304)">
<path d="M71.0566 7.57056V22.4774H66.9209L61.2524 15.7081V22.4774H56.3555V7.57056H60.4911L66.1596 14.3399V7.57056H71.0566Z" fill="#274184"/>
<path d="M90.3144 7.57056V22.4774H85.2837V16.9838H80.644V22.4774H75.6133V7.57056H80.644V12.8481H85.2837V7.57056H90.3144Z" fill="#274184"/>
<path d="M105.037 19.8746H99.3687L98.3708 22.4774H93.2578L99.7802 7.57056H104.718L111.241 22.4774H106.045L105.048 19.8746H105.037ZM103.648 16.2637L102.198 12.5189L100.747 16.2637H103.648Z" fill="#274184"/>
<path d="M116.663 11.4696H112.301V7.57056H126.055V11.4696H121.693V22.4774H116.663V11.4696Z" fill="#274184"/>
<path d="M148.162 19.8746H142.494L141.496 22.4774H136.383L142.905 7.57056H147.843L154.366 22.4774H149.17L148.173 19.8746H148.162ZM146.784 16.2637L145.333 12.5189L143.883 16.2637H146.784Z" fill="#274184"/>
<path d="M172 7.57056V22.4774H167.864L162.196 15.7081V22.4774H157.299V7.57056H161.434L167.103 14.3399V7.57056H172Z" fill="#274184"/>
<path d="M59.1326 42.2093C58.001 41.911 57.0751 41.5098 56.3652 41.016L57.7541 37.9091C58.4228 38.3515 59.1944 38.7012 60.0791 38.979C60.9638 39.2465 61.828 39.3802 62.6819 39.3802C64.297 39.3802 65.1098 38.979 65.1098 38.1663C65.1098 37.7445 64.8834 37.4256 64.4205 37.2198C63.9576 37.0141 63.2168 36.798 62.1984 36.5717C61.077 36.3351 60.1408 36.0676 59.3898 35.7898C58.6388 35.5121 57.9907 35.0697 57.4557 34.4627C56.9208 33.8557 56.643 33.0327 56.643 31.9937C56.643 31.0883 56.8899 30.2653 57.3837 29.5349C57.8775 28.8045 58.6182 28.2284 59.6059 27.7963C60.5935 27.3745 61.8074 27.1584 63.2374 27.1584C64.2147 27.1584 65.1818 27.2716 66.1385 27.4877C67.0953 27.7037 67.9286 28.0329 68.6487 28.4547L67.3525 31.5822C65.9328 30.8106 64.5542 30.4299 63.2168 30.4299C62.3835 30.4299 61.7663 30.5534 61.3856 30.8003C61.005 31.0472 60.8095 31.3764 60.8095 31.7673C60.8095 32.1583 61.0358 32.4669 61.4885 32.6624C61.9412 32.8578 62.6716 33.0636 63.6798 33.2796C64.8114 33.5162 65.7579 33.7837 66.4986 34.0615C67.2393 34.3393 67.8875 34.7816 68.4327 35.3783C68.9779 35.975 69.2557 36.798 69.2557 37.8371C69.2557 38.7321 69.0088 39.5448 68.515 40.265C68.0212 40.9851 67.2702 41.5715 66.2826 42.0036C65.2847 42.4357 64.081 42.6517 62.6613 42.6517C61.4576 42.6517 60.2848 42.5077 59.1429 42.2093H59.1326Z" fill="#F9A61C"/>
<path d="M82.6718 30.79H78.0938V27.4465H91.4472V30.79H86.8897V42.3534H82.6718V30.79Z" fill="#F9A61C"/>
<path d="M113.514 39.1025V42.3637H101.539V27.4568H113.236V30.718H105.716V33.2282H112.341V36.3762H105.716V39.1025H113.514Z" fill="#F9A61C"/>
<path d="M136.342 39.1025V42.3637H124.367V27.4568H136.064V30.718H128.544V33.2282H135.169V36.3762H128.544V39.1025H136.342Z" fill="#F9A61C"/>
<path d="M147.205 27.4465H151.423V39.0099H158.542V42.3534H147.205V27.4465Z" fill="#F9A61C"/>
<path d="M44.3503 42.7956H44.3297L43.5787 32.7342L49.1958 31.3865L48.9694 30.6355L43.517 31.9421L43.2701 28.6191L47.5909 26.1295L48.5271 24.5041L43.0437 28.2899L38.9492 27.3949L43.7536 23.0329L42.4676 22.1996L38.4348 27.2817L34.3403 26.3867L37.7661 21.9013L36.9534 21.3149L33.8877 26.2838L29.9063 25.4094L32.3034 20.4301L31.3569 20.0495L29.4948 25.3168L26.069 24.5658L26.6143 19.2573H24.7831L25.3283 24.5555L21.9025 25.3065L20.0404 20.0392L19.094 20.4198L21.491 25.3888L17.5097 26.2632L14.4439 21.2943L13.6312 21.8807L17.057 26.3558L12.9625 27.2509L8.94001 22.1687L7.65405 23.002L12.4584 27.3537L8.3639 28.2488L2.88055 24.4629L3.81674 26.0884L8.1067 28.5677L7.8598 31.9009L2.4279 30.5944L2.20157 31.3454L7.79807 32.6828L7.04707 42.7544L0 47.2501H2.70566L7.78779 42.7956L9.28979 32.8679H42.0973L43.5993 42.7956H43.6198L48.702 47.2501H51.4076L44.3605 42.7956H44.3503ZM9.42353 31.9626L9.81446 29.3598L25.6884 25.4094L41.5623 29.3598L41.9532 31.9626H9.42353Z" fill="#F9A61C"/>
<path d="M25.6987 17.1895L0 22.5596V47.2501H2.70566L4.33112 25.4608L25.6987 21.2737L47.0662 25.4608L48.6917 47.2501H51.3973V22.5596L25.6987 17.1895Z" fill="#274184"/>
<path d="M51.3973 0.749756L47.0662 1.65507L47.1176 13.5476L0 0.749756V19.1133L4.25911 18.2286L4.31054 6.40799L51.3973 19.1133V0.749756Z" fill="#274184"/>
</g>
<defs>
<clipPath id="clip0_2007_304">
<rect width="172" height="46.5004" fill="white" transform="translate(0 0.749756)"/>
</clipPath>
</defs>
</svg>
