<svg width="25" height="24" viewBox="0 0 25 24" fill="none" xmlns="http://www.w3.org/2000/svg">
<path d="M6.19483 2.48145C10.1615 2.70759 14.7093 2.08359 18.6093 2.45479C20.437 2.62865 22.2604 4.37479 22.4426 6.13479C22.1915 9.89265 22.7804 14.0548 22.4482 17.7647C22.2804 19.6313 20.5348 21.3039 18.6093 21.546C14.6948 21.3049 10.3593 21.8703 6.49483 21.5513C4.55038 21.3903 2.80816 19.7145 2.55594 17.866C2.87372 14.122 2.1215 9.70279 2.56705 6.03879C2.76372 4.41852 4.50927 2.70119 6.19483 2.48145ZM12.3137 5.67932C8.62594 5.69212 6.27038 6.62652 5.99483 10.5028C5.80594 13.1567 6.02594 16.0004 9.05927 16.9561C9.24261 17.2164 9.00594 18.2884 9.13261 18.6991C9.22927 19.0148 9.74483 19.082 9.99927 18.9327C10.2837 18.7663 11.0037 17.6217 11.327 17.3327C13.3248 17.4031 16.0448 17.5215 17.5582 16.0569C19.0715 14.5924 19.1993 11.5033 18.8748 9.55985C18.3215 6.24679 15.3493 5.66865 12.3137 5.67932Z" fill="#F9A61C"/>
<path d="M9.44393 18.5596V15.9996C7.98948 15.6326 7.16615 14.4636 7.00059 13.0652C6.81837 11.5206 6.89059 8.89236 8.12282 7.74462C9.77171 6.20756 15.3039 6.34836 16.9484 7.88862C18.3684 9.21876 18.2639 13.4342 17.1584 14.9265C15.8628 16.6769 13.3995 16.3036 11.4417 16.4785C10.9239 17.0278 10.4628 17.703 9.94393 18.2406C9.81059 18.3793 9.66615 18.5841 9.44282 18.5596H9.44393ZM15.7773 11.8406C15.9761 9.87476 14.3117 8.07209 12.2217 8.21396V8.53289C14.1706 8.52969 15.5095 9.99636 15.445 11.8406H15.7773ZM10.5228 8.67262C10.0284 8.28116 9.02059 9.15582 8.99059 9.65289C8.92393 10.742 10.8006 12.9201 11.665 13.6006C12.1684 13.9964 13.8984 15.0022 14.4895 14.9308C14.9973 14.8689 15.8239 13.9601 15.4095 13.4705C15.3561 13.4076 14.4684 12.7548 14.3728 12.7089C13.5184 12.294 13.5473 12.999 13.1406 13.1046C12.3017 13.3233 10.7428 11.7702 10.8817 10.935C10.9328 10.6278 11.5417 10.5969 11.4473 9.97929C11.435 9.90142 10.6073 8.74089 10.5228 8.67369V8.67262ZM14.8884 11.5206C15.1184 10.1777 13.9473 8.96489 12.5517 9.11636V9.44276C13.7939 9.42036 14.7006 10.3164 14.5561 11.5196H14.8884V11.5206ZM12.8428 9.92702C12.7895 9.94089 12.6173 10.0678 12.7206 10.134C12.835 10.2769 13.295 10.2876 13.5095 10.551C13.7461 10.8401 13.5461 11.2273 13.9428 11.3062C14.4617 11.1932 13.7528 9.69022 12.8428 9.92702Z" fill="#F9A61C"/>
</svg>
