<svg width="23" height="23" viewBox="0 0 23 23" fill="none" xmlns="http://www.w3.org/2000/svg">
<path d="M2.11156 20.9586L3.75583 16.0406L3.74128 15.9611C0.594501 10.7011 3.43547 3.86611 9.33474 2.33051C16.0418 0.584624 22.1739 6.55735 20.6641 13.3078C19.3301 19.2721 12.5557 22.2863 7.19503 19.3395L2.11133 20.9586H2.11156ZM4.50521 18.588L7.42808 17.6715C10.4979 19.6706 14.6114 19.2512 17.1674 16.6173C21.3426 12.3146 19.1879 5.08793 13.3724 3.77177C6.96292 2.32112 1.7729 9.13264 4.92366 14.9195C5.08443 15.2147 5.29612 15.4865 5.44539 15.7829L4.50521 18.5882V18.588Z" fill="#F9A61C"/>
<path d="M9.37947 6.86157C9.42923 6.90663 9.50926 7.04651 9.53977 7.11175C9.82985 7.72899 9.99789 8.48799 10.2772 9.12002C10.33 9.54717 9.75358 9.95014 9.52874 10.2451C9.36187 10.4641 9.46021 10.5765 9.57098 10.7885C10.062 11.7263 10.9583 12.6489 11.8677 13.1856C12.0503 13.2934 12.5417 13.5752 12.7241 13.62C12.872 13.6564 12.9698 13.6438 13.0834 13.5421C13.2634 13.3814 13.503 13.0774 13.6706 12.8855C13.8027 12.7338 13.922 12.4722 14.1391 12.4609C14.354 12.4496 14.9401 12.7827 15.1612 12.8962C15.4782 13.0594 16.0673 13.3354 16.3325 13.532C16.536 13.6827 16.4468 14.0991 16.3975 14.3215C16.2576 14.9522 15.9091 15.3061 15.3409 15.5884C14.2151 16.1477 13.3181 15.7602 12.251 15.3141C10.1932 14.4537 8.65239 12.8301 7.59956 10.8828C6.90087 9.59035 6.75794 7.87803 8.07505 6.91437C8.38953 6.68437 8.83827 6.73413 9.20932 6.78529C9.2633 6.7928 9.33911 6.82542 9.37924 6.8618L9.37947 6.86157Z" fill="#F9A61C"/>
</svg>
