<svg width="25" height="24" viewBox="0 0 25 24" fill="none" xmlns="http://www.w3.org/2000/svg">
<path d="M6.7228 3.03282C10.3603 3.20922 14.4765 2.67882 18.0603 3.00042C20.1165 3.18522 21.6403 4.72482 21.8728 6.66042C21.664 10.0912 22.1578 13.8292 21.879 17.2228C21.7165 19.2112 20.144 20.8096 18.0603 20.9968C14.5678 21.3112 10.6015 20.7628 7.0578 21.0028C5.0028 20.8576 3.31405 19.3144 3.12655 17.3368C2.8028 13.9096 3.3503 10.0288 3.1403 6.55362C3.3978 4.72722 4.8228 3.31122 6.7228 3.03282ZM7.83905 5.06442C5.1728 6.86322 4.63155 10.984 5.7253 13.762C5.8753 14.1424 6.6828 15.346 6.6978 15.5356C6.7378 16.0684 5.99905 17.386 6.3628 17.83C6.89905 18.3124 8.17655 17.4004 8.68655 17.4472C8.79655 17.4568 9.9128 18.106 10.204 18.2224C12.604 19.1824 15.339 19.264 17.7815 18.3304C18.3478 18.1132 19.6715 17.476 19.7553 16.8652C19.4978 13.6288 20.0765 9.95562 19.7553 6.77322C19.6678 5.90802 18.9628 5.18682 18.064 5.03682L7.8378 5.06562L7.83905 5.06442Z" fill="#F9A61C"/>
<path d="M11.25 9.96094C11.4838 10.1625 9.35875 12.1437 9.25 12.4809H11V12.9609H8.25L10.25 10.4409H8.375C8.325 10.3017 8.43 9.96094 8.5625 9.96094H11.25Z" fill="#F9A61C"/>
<path d="M13.7496 10.5604V12.9604H13.3296L13.1896 12.7192C11.7271 13.732 10.2221 11.5012 11.7859 10.6564C12.5509 10.2424 12.9584 10.7884 13.7496 10.5604ZM12.9684 12.3292C13.7021 11.662 12.7746 10.5736 11.9284 11.152C11.0821 11.7304 12.2196 13.0096 12.9684 12.3292Z" fill="#F9A61C"/>
<path d="M15.6669 10.8398C16.8457 9.68663 18.6994 11.4086 17.5669 12.6038C16.3919 13.8434 14.4857 11.9954 15.6669 10.8398ZM16.0294 11.1878C15.3769 11.8142 16.4357 13.0646 17.1819 12.2354C17.9282 11.4062 16.6107 10.6286 16.0294 11.1878Z" fill="#F9A61C"/>
<path d="M14.75 9.96094H14.25V12.9609H14.75V9.96094Z" fill="#F9A61C"/>
</svg>
